<?xml version="1.0" encoding="UTF-8"?>
<svg version="1.1" xmlns="http://www.w3.org/2000/svg" width="585" height="585">
<path d="M0 0 C0 0.66 0 1.32 0 2 C0.84820312 1.9484375 1.69640625 1.896875 2.5703125 1.84375 C6.48192109 2.0219554 9.25912 3.02413061 12.875 4.5 C14.02742187 4.9640625 15.17984375 5.428125 16.3671875 5.90625 C17.67042969 6.44765625 17.67042969 6.44765625 19 7 C19 7.66 19 8.32 19 9 C19.87527344 9.25007813 20.75054687 9.50015625 21.65234375 9.7578125 C25.15365864 11.05701686 27.58932602 12.63348904 30.5625 14.875 C31.47128906 15.55304688 32.38007813 16.23109375 33.31640625 16.9296875 C41.29461175 23.08463498 41.29461175 23.08463498 44.3125 26.625 C44.82425781 27.21539062 45.33601562 27.80578125 45.86328125 28.4140625 C47 30 47 30 47 32 C47.99 32.33 48.98 32.66 50 33 C50.6875 35.0625 50.6875 35.0625 51 37 C51.66 37 52.32 37 53 37 C54.4606285 39.64738916 55 40.89448334 55 44 C55.54785156 43.97679687 56.09570312 43.95359375 56.66015625 43.9296875 C67.22877123 43.68910114 77.83609052 45.09602586 88 48 C88 48.66 88 49.32 88 50 C88.969375 50.0825 89.93875 50.165 90.9375 50.25 C95.67119101 50.8999125 99.73984407 52.92305323 104 55 C104 55.66 104 56.32 104 57 C104.680625 57.061875 105.36125 57.12375 106.0625 57.1875 C109.95451162 58.26401385 113.03444754 60.25665032 116 63 C116 63.66 116 64.32 116 65 C116.721875 65.226875 117.44375 65.45375 118.1875 65.6875 C123.64310419 68.23344862 127.35862076 73.3182267 131 78 C131 78.66 131 79.32 131 80 C131.99 80.33 132.98 80.66 134 81 C135.16796875 82.5234375 135.16796875 82.5234375 136.1875 84.375 C136.53167969 84.98085937 136.87585938 85.58671875 137.23046875 86.2109375 C138 88 138 88 138 91 C138.66 91 139.32 91 140 91 C142.37113483 95.96284034 144.43174347 100.45949887 145 106 C145.66 106 146.32 106 147 106 C151.28287543 126.01368834 152.31973001 145.04540092 147 165 C146.34 165 145.68 165 145 165 C144.9175 165.804375 144.835 166.60875 144.75 167.4375 C142.26382706 179.24682146 134.75218699 190.839177 126 199 C125.34 199 124.68 199 124 199 C123.77054687 199.57105469 123.54109375 200.14210938 123.3046875 200.73046875 C117.48891138 210.84713319 103.15196329 217.3192487 92.78686523 221.60644531 C91.70388657 222.05513977 90.6209079 222.50383423 89.50511169 222.96612549 C88.67842484 223.30730408 87.85173798 223.64848267 87 224 C86.99576806 224.61145056 86.99153612 225.22290112 86.98717594 225.85288048 C86.88396554 240.71642936 86.7753423 255.57993122 86.66066074 270.44339561 C86.60533325 277.6311924 86.55185203 284.81899415 86.50268555 292.00683594 C86.4598379 298.27022201 86.41355845 304.53357161 86.36312145 310.79690135 C86.33652516 314.11466556 86.31218397 317.43242171 86.29092598 320.75022507 C86.26693022 324.44990863 86.23686908 328.14949532 86.20532227 331.84912109 C86.1995668 332.95466843 86.19381134 334.06021576 86.18788147 335.19926453 C86.17809265 336.20329819 86.16830383 337.20733185 86.15821838 338.24179077 C86.15176583 339.11749411 86.14531328 339.99319744 86.1386652 340.89543724 C86 343 86 343 85 345 C84.34 345 83.68 345 83 345 C82.89945313 345.60070312 82.79890625 346.20140625 82.6953125 346.8203125 C81.35505272 351.02180103 77.65162466 352.8368675 74 355 C60.32584738 361.82019464 44.8385801 365.12737809 29.60546875 365.7265625 C26.87394761 365.92559684 26.87394761 365.92559684 23.87890625 366.984375 C18.92005832 368.47062726 13.89365115 368.47366954 8.75 368.625 C7.07260742 368.68083252 7.07260742 368.68083252 5.36132812 368.73779297 C-54.94201356 370.51479258 -54.94201356 370.51479258 -74 367 C-74.33 366.67 -74.66 366.34 -75 366 C-77.09883318 365.69053701 -79.20484932 365.42973268 -81.3125 365.1875 C-87.7105471 364.38636692 -94.04299265 363.34162247 -100.375 362.125 C-101.19395752 361.97571045 -102.01291504 361.8264209 -102.85668945 361.67260742 C-111.36266342 359.99272268 -118.59553117 356.41117292 -126 352 C-126 351.34 -126 350.68 -126 350 C-126.8971875 349.62875 -126.8971875 349.62875 -127.8125 349.25 C-130.38757507 347.77852853 -131.43923793 346.5146965 -133 344 C-133.38476086 341.63372421 -133.38476086 341.63372421 -133.39872742 338.96331787 C-133.41126556 337.94812073 -133.42380371 336.93292358 -133.4367218 335.88696289 C-133.43528671 334.77925537 -133.43385162 333.67154785 -133.43237305 332.53027344 C-133.44766052 330.77375458 -133.44766052 330.77375458 -133.46325684 328.98175049 C-133.49347331 325.1075772 -133.50266629 321.23365082 -133.51171875 317.359375 C-133.52691202 314.67464017 -133.54656235 311.98994296 -133.56611633 309.30523682 C-133.6097849 302.95885496 -133.63832958 296.61249881 -133.66143972 290.26601243 C-133.68848954 283.03986248 -133.73240113 275.81384578 -133.77772844 268.58779097 C-133.87057974 253.72526826 -133.94225821 238.86270222 -134 224 C-134.88310349 223.66929001 -135.76620697 223.33858002 -136.67607117 222.99784851 C-137.8395961 222.5572963 -139.00312103 222.11674408 -140.2019043 221.6628418 C-141.35313278 221.22900681 -142.50436127 220.79517181 -143.69047546 220.34819031 C-148.03434719 218.57864133 -151.89250487 216.36532441 -155.8125 213.8125 C-156.51697266 213.37486328 -157.22144531 212.93722656 -157.94726562 212.48632812 C-159.67347795 211.38752436 -161.34355417 210.20140166 -163 209 C-163 208.34 -163 207.68 -163 207 C-163.639375 206.71125 -164.27875 206.4225 -164.9375 206.125 C-167 205 -167 205 -168 203 C-168.4375 199.6875 -168.4375 199.6875 -168 196 C-165.0475209 192.69603529 -163.23569884 191.16960572 -158.8125 190.5625 C-156 191 -156 191 -153 193 C-153 193.66 -153 194.32 -153 195 C-151.90751953 195.40412109 -151.90751953 195.40412109 -150.79296875 195.81640625 C-148.06736139 196.97145385 -145.79043818 198.32786412 -143.3125 199.9375 C-139.02885465 202.57309617 -134.99483687 204.14093972 -130.12890625 205.359375 C-128 206 -128 206 -125 208 C-110.84479959 210.91377696 -94.22091552 211.74007458 -81 205 C-79.37726889 204.38976553 -77.75203993 203.78615133 -76.125 203.1875 C-71.5713257 201.39805918 -67.77138558 199.02792817 -63.8125 196.171875 C-62 195 -62 195 -60 195 C-60 194.34 -60 193.68 -60 193 C-57.38930678 191.29300828 -56.04682188 190.99812712 -52.875 191.125 C-50 192 -50 192 -48.625 194.0625 C-48.315625 195.0215625 -48.315625 195.0215625 -48 196 C-47.34 196 -46.68 196 -46 196 C-44.94485701 203.53673566 -44.94485701 203.53673566 -47.2421875 206.72265625 C-49.07904107 208.30979932 -50.97928674 209.65537585 -53 211 C-53.61746094 211.47953125 -54.23492187 211.9590625 -54.87109375 212.453125 C-69.85670799 223.55357999 -88.27407422 227.25099116 -106.54296875 227.06640625 C-107.45767944 227.06161255 -108.37239014 227.05681885 -109.31481934 227.05187988 C-111.54329364 227.03950351 -113.77160486 227.02212676 -116 227 C-116.00955466 241.27332131 -115.98456803 255.54622319 -115.9197216 269.81940842 C-115.89062332 276.44675861 -115.8726443 283.07375385 -115.87988281 289.70117188 C-115.88645985 296.09455393 -115.86408245 302.48723357 -115.82144547 308.88047028 C-115.81028541 311.32213085 -115.80963999 313.7638624 -115.81957626 316.20552826 C-115.83169476 319.62055004 -115.8067634 323.03341 -115.77294922 326.44824219 C-115.78517014 327.46244232 -115.79739105 328.47664246 -115.8099823 329.52157593 C-115.76292894 332.15084776 -115.66741487 334.45653319 -115 337 C-111.2192803 340.44406057 -107.56794913 341.65156686 -102.625 342.75 C-101.56539063 342.99234375 -100.50578125 343.2346875 -99.4140625 343.484375 C-98.21910156 343.73960937 -98.21910156 343.73960937 -97 344 C-97 344.66 -97 345.32 -97 346 C-81.37309149 348.02610952 -65.74457186 349.90726233 -50.00390625 350.75390625 C-47 351 -47 351 -45.05667114 351.5072937 C-41.54944879 352.34750121 -37.95527492 352.14184303 -34.3671875 352.1328125 C-33.53414093 352.13376923 -32.70109436 352.13472595 -31.84280396 352.13571167 C-30.08611983 352.13639092 -28.32943318 352.13455443 -26.57275391 352.13037109 C-23.87787278 352.12500572 -21.1831573 352.13033162 -18.48828125 352.13671875 C-16.78124963 352.13605819 -15.07421812 352.13477748 -13.3671875 352.1328125 C-12.55885468 352.13483673 -11.75052185 352.13686096 -10.91769409 352.13894653 C-6.82723906 352.22247191 -6.82723906 352.22247191 -3 351 C-1.26302536 350.82422706 0.47946588 350.70172032 2.22265625 350.60546875 C3.30699951 350.5391626 4.39134277 350.47285645 5.50854492 350.40454102 C6.6813501 350.33291748 7.85415527 350.26129395 9.0625 350.1875 C18.67663764 349.53649236 28.16923518 348.57398411 37.6875 347.0625 C39.21612671 346.82599731 39.21612671 346.82599731 40.77563477 346.5847168 C46.53439755 345.62532375 51.59409413 344.19487907 57 342 C58.82658938 341.41597208 60.659022 340.84945192 62.5 340.3125 C63.3559375 340.06113281 64.211875 339.80976563 65.09375 339.55078125 C66.03734375 339.27814453 66.03734375 339.27814453 67 339 C67 338.34 67 337.68 67 337 C67.66 337 68.32 337 69 337 C69 300.7 69 264.4 69 227 C62.4 227 55.8 227 49 227 C35.8150706 225.24815623 24.85141006 222.03982972 13 216 C13 215.34 13 214.68 13 214 C12.278125 213.731875 11.55625 213.46375 10.8125 213.1875 C5.15325929 210.79804281 1.52813108 208.140991 -2 203 C-2.625 199.9375 -2.625 199.9375 -2 197 C0.28297264 194.06474946 2.03961648 192.38415341 5.5 191 C9.46890572 191 12.11700257 193.4024607 15.33203125 195.578125 C32.32440015 207.03124924 48.43705552 211.27354423 69 209 C69.92554688 208.92523438 70.85109375 208.85046875 71.8046875 208.7734375 C76.37664842 208.52697567 76.37664842 208.52697567 80 206 C81.79748457 205.39122112 83.61354842 204.83667854 85.4375 204.3125 C91.21259361 202.4825607 95.77472061 199.84909396 100.72265625 196.390625 C103 195 103 195 106 195 C106.226875 194.443125 106.45375 193.88625 106.6875 193.3125 C108.37367031 190.34162851 110.55387116 188.39177042 113 186 C118.01620758 180.76569644 121.78584012 175.49574969 125 169 C125.34804688 168.33742188 125.69609375 167.67484375 126.0546875 166.9921875 C134.9306268 148.89628025 135.06258455 129.87763396 129 111 C126.89447581 105.02274744 123.8823456 100.07017041 120.171875 94.9453125 C119 93 119 93 119 90 C118.01 89.67 117.02 89.34 116 89 C116 88.34 116 87.68 116 87 C115.34 87 114.68 87 114 87 C112.66104368 85.33784732 111.32869858 83.67036393 110 82 C109.0925 81.278125 108.185 80.55625 107.25 79.8125 C106.5075 79.214375 105.765 78.61625 105 78 C105 77.34 105 76.68 105 76 C104.34 75.773125 103.68 75.54625 103 75.3125 C100.53257233 74.23300039 98.84787499 73.21077993 96.6875 71.6875 C91.37092505 68.22864719 85.35004686 66.76644861 79.31640625 65.015625 C76 64 76 64 75 63 C72.96534217 62.79517753 70.9244048 62.65214187 68.8828125 62.53515625 C67.63628906 62.45716797 66.38976562 62.37917969 65.10546875 62.29882812 C62.45983686 62.14175184 59.81400026 61.98808491 57.16796875 61.83789062 C55.91886719 61.75861328 54.66976562 61.67933594 53.3828125 61.59765625 C52.23184082 61.53070557 51.08086914 61.46375488 49.89501953 61.39477539 C47 61 47 61 44 59 C42.97593767 57.28763348 42.02506536 55.53066985 41.125 53.75 C39.35090755 50.36591864 37.64112689 47.31817936 35.125 44.4375 C33 42 33 42 33 40 C32.34 40 31.68 40 31 40 C30.7525 39.195625 30.505 38.39125 30.25 37.5625 C29.27761141 34.828919 29.27761141 34.828919 26.875 34.1875 C26.25625 34.125625 25.6375 34.06375 25 34 C25 33.34 25 32.68 25 32 C23.35 31.34 21.7 30.68 20 30 C20 29.34 20 28.68 20 28 C18.93458984 27.59587891 18.93458984 27.59587891 17.84765625 27.18359375 C14.93200993 25.97174075 12.22109144 24.5508693 9.4375 23.0625 C1.28163469 18.94439067 -7.0142566 17.19809912 -16 16 C-16.33 15.67 -16.66 15.34 -17 15 C-24.6174017 14.51257697 -31.67407712 14.93039739 -39 17 C-40.08152344 17.268125 -41.16304688 17.53625 -42.27734375 17.8125 C-53.9766503 20.86117923 -62.82811868 25.6211446 -72.00390625 33.4609375 C-74 35 -74 35 -76 35 C-76.26941406 35.59039062 -76.53882813 36.18078125 -76.81640625 36.7890625 C-77.99389512 38.98859616 -79.25211662 40.54809588 -80.9375 42.375 C-83.59274017 45.37825708 -85.26876398 48.37264833 -87 52 C-88 53 -89 54 -90 55 C-90.67349161 56.66392045 -91.3409159 58.33032028 -92 60 C-94.98715138 61.49357569 -98.03887936 61.22503435 -101.3125 61.25 C-103.28669922 61.28867188 -103.28669922 61.28867188 -105.30078125 61.328125 C-109.1366309 60.98788068 -110.9843701 60.33103099 -114 58 C-115.23621824 55.52756353 -114.98408601 54.22682061 -114.6875 51.5 C-114.60886719 50.7059375 -114.53023437 49.911875 -114.44921875 49.09375 C-114 47 -114 47 -112 45 C-110.61132933 44.63798402 -109.21397422 44.30875852 -107.8125 44 C-102.54253696 42.31595776 -100.80470991 39.41710116 -97.91796875 34.87890625 C-87.07099461 18.59739924 -69.33313488 6.00582825 -50.27734375 1.640625 C-47.74959507 1.05598556 -47.74959507 1.05598556 -45 -1 C-42.22954393 -1.49973416 -39.54273892 -1.89132681 -36.75 -2.1875 C-35.94804199 -2.27354492 -35.14608398 -2.35958984 -34.31982422 -2.44824219 C-22.70062422 -3.55614612 -11.43603006 -2.19350297 0 0 Z " fill="#0A0A0A" transform="translate(350,109)"/>
<path d="M0 0 C1.6603743 0.68218721 3.32543955 1.35341705 5 2 C5 2.66 5 3.32 5 4 C5.66 4 6.32 4 7 4 C7 4.66 7 5.32 7 6 C7.61875 6.2475 8.2375 6.495 8.875 6.75 C11.45974333 8.27043725 11.91565299 9.23460887 13 12 C13.25447559 14.47445488 13.25447559 14.47445488 13.26069641 17.30001831 C13.26778122 18.37385773 13.27486603 19.44769714 13.28216553 20.55407715 C13.27968811 21.72716431 13.27721069 22.90025146 13.2746582 24.10888672 C13.27976913 25.3482901 13.28488007 26.58769348 13.29014587 27.86465454 C13.30166616 31.26148691 13.30411506 34.65807529 13.30158257 38.05491018 C13.30051231 40.89279929 13.30539775 43.73066593 13.310188 46.56855023 C13.32128181 53.26560659 13.32172158 59.96260686 13.31567383 66.65966797 C13.30963594 73.56250006 13.3219405 80.46512822 13.3432439 87.36792552 C13.36087438 93.29927425 13.36685891 99.23055815 13.36360615 105.16193211 C13.36179514 108.70227866 13.36441103 112.24247981 13.37832069 115.78280258 C13.39325889 119.73272413 13.38391619 123.68238719 13.37231445 127.63232422 C13.37995819 128.80136292 13.38760193 129.97040161 13.39547729 131.17486572 C13.35235764 137.81083466 13.04139688 142.77969743 8.2734375 147.828125 C3.37108142 151.49984848 -0.92900245 153.18491237 -7 154 C-7 154.66 -7 155.32 -7 156 C-9.82941019 156.68889987 -12.66144997 157.35068716 -15.5 158 C-16.27214844 158.19078125 -17.04429687 158.3815625 -17.83984375 158.578125 C-23.40655548 159.82506843 -28.68145036 160.11287144 -34.35742188 160.0546875 C-35.46340729 160.04876587 -35.46340729 160.04876587 -36.59173584 160.04272461 C-38.39451782 160.0325002 -40.1972674 160.01680994 -42 160 C-42.07967353 176.71612109 -42.10793164 193.43141814 -42.07515812 210.14766121 C-42.06113607 217.90956995 -42.06387182 225.67079433 -42.10620117 233.43261719 C-42.14305783 240.19875044 -42.1483262 246.96404914 -42.11582941 253.73021781 C-42.09972316 257.31249082 -42.09932187 260.89319884 -42.13676643 264.47534561 C-42.17800427 268.47705087 -42.14870228 272.47528752 -42.11352539 276.47705078 C-42.13653214 277.6617244 -42.15953888 278.84639801 -42.1832428 280.06697083 C-42.17821097 286.13386335 -42.17821097 286.13386335 -39.00558281 291.01604843 C-36.73026438 292.52595049 -34.4227752 293.74869575 -32 295 C-29.625 297.5 -29.625 297.5 -28 300 C-27.48115234 300.78334717 -26.96230469 301.56669434 -26.42773438 302.3737793 C-24.32088661 307.72484116 -24.53223536 312.81661024 -24.53125 318.51953125 C-24.51982971 320.3392469 -24.51982971 320.3392469 -24.50817871 322.19572449 C-24.49738962 324.75847317 -24.49451974 327.32126577 -24.49902344 329.8840332 C-24.49999408 333.78867668 -24.45838824 337.69134395 -24.4140625 341.59570312 C-24.40885388 344.09114176 -24.40616733 346.58658718 -24.40625 349.08203125 C-24.38985474 350.241689 -24.37345947 351.40134674 -24.35656738 352.59614563 C-24.43343293 361.69169443 -26.69900446 367.92743343 -33.1875 374.375 C-40.45476281 379.98563946 -48.17060366 380.46126479 -57.05859375 379.52734375 C-60.59566612 378.89320727 -63.01436579 377.9619882 -66 376 C-66 375.34 -66 374.68 -66 374 C-66.60585937 373.74476563 -67.21171875 373.48953125 -67.8359375 373.2265625 C-70.26404093 371.85034503 -71.17022149 370.73080262 -72.625 368.375 C-73.02976563 367.74335938 -73.43453125 367.11171875 -73.8515625 366.4609375 C-76.98516869 359.7460671 -77.29850158 353.15168373 -77.265625 345.875 C-77.26849518 344.45550049 -77.26849518 344.45550049 -77.27142334 343.00732422 C-77.2727773 341.01724988 -77.26913633 339.02716647 -77.26074219 337.03710938 C-77.25003152 334.00891079 -77.26066451 330.98130536 -77.2734375 327.953125 C-77.27211577 326.01041537 -77.26955308 324.06770611 -77.265625 322.125 C-77.26967346 321.22894043 -77.27372192 320.33288086 -77.27789307 319.40966797 C-77.20198165 309.1206401 -74.75834279 300.84159593 -67.37890625 293.35546875 C-64.98565605 291.28450162 -63.01739852 290.00579951 -60 289 C-59.67 246.43 -59.34 203.86 -59 160 C-64.28 160 -69.56 160 -75 160 C-87.19274421 158.11656797 -101.78901425 155.49986881 -110.6875 146.1875 C-115.53418117 139.50693946 -115.29699335 133.11627052 -115.29052734 125.15478516 C-115.29724457 123.96707016 -115.30396179 122.77935516 -115.31088257 121.5556488 C-115.32659168 118.30966257 -115.33323559 115.06383018 -115.33451414 111.81781054 C-115.33593931 109.78648193 -115.34021579 107.75517987 -115.34550858 105.72385788 C-115.36399009 98.62773699 -115.37218147 91.53169104 -115.37060547 84.43554688 C-115.36940428 77.83598767 -115.39050669 71.2367556 -115.4220928 64.63727915 C-115.44829919 58.9580837 -115.45897096 53.27899484 -115.45769465 47.59973943 C-115.45718633 44.21355821 -115.46279686 40.82766802 -115.48405075 37.44154739 C-115.50367442 33.66209095 -115.49788589 29.88347424 -115.48583984 26.10400391 C-115.49707886 24.99205154 -115.50831787 23.88009918 -115.51989746 22.73445129 C-115.4658945 16.05717698 -114.63851262 11.66053764 -111 6 C-108.3125 4.6875 -108.3125 4.6875 -106 4 C-105.67 3.01 -105.34 2.02 -105 1 C-103.68 1 -102.36 1 -101 1 C-101 0.34 -101 -0.32 -101 -1 C-100.32453125 -1.19335938 -99.6490625 -1.38671875 -98.953125 -1.5859375 C-98.06109375 -1.84632812 -97.1690625 -2.10671875 -96.25 -2.375 C-95.36828125 -2.63023438 -94.4865625 -2.88546875 -93.578125 -3.1484375 C-91.04510094 -3.91021531 -91.04510094 -3.91021531 -88.99609375 -5.03515625 C-66.1536051 -16.07643746 -21.22376446 -10.61188223 0 0 Z M-80 11 C-82.96317261 11.75111061 -85.93960518 12.38871414 -88.9296875 13.0234375 C-92.7979195 14.25379119 -94.98669726 15.21086188 -98 18 C-98.90107595 21.71833253 -98.7572455 25.38589463 -98.68115234 29.19433594 C-98.6820285 30.3360878 -98.68290466 31.47783966 -98.68380737 32.65419006 C-98.67962409 36.43161205 -98.63293186 40.20726287 -98.5859375 43.984375 C-98.57474813 46.60181712 -98.56620673 49.21927179 -98.56021118 51.83673096 C-98.54156835 58.02407289 -98.49234025 64.21077813 -98.43211424 70.39783978 C-98.36503052 77.44244842 -98.33205564 84.4870876 -98.30194163 91.53193617 C-98.23923983 106.02161911 -98.13371654 120.51080065 -98 135 C-96.58045372 135.64348184 -95.15952738 136.28391972 -93.73803711 136.9230957 C-92.94691025 137.28007034 -92.15578339 137.63704498 -91.34068298 138.00483704 C-88.11932227 139.37442826 -84.95035131 140.29404083 -81.5625 141.1875 C-79.77005859 141.67283203 -79.77005859 141.67283203 -77.94140625 142.16796875 C-56.47196884 147.1188595 -24.44567788 147.26824672 -4.81766129 135.71551037 C-2.82073661 134.15059635 -2.82073661 134.15059635 -2.50780869 131.81924152 C-2.51149586 130.96658301 -2.51518303 130.1139245 -2.51898193 129.23542786 C-2.51348328 128.25526199 -2.50798462 127.27509613 -2.50231934 126.26522827 C-2.51670044 125.19132843 -2.53108154 124.11742859 -2.54589844 123.01098633 C-2.54531433 121.87913406 -2.54473022 120.7472818 -2.54412842 119.58113098 C-2.5469204 115.83112165 -2.57806649 112.08190213 -2.609375 108.33203125 C-2.61683339 105.73557469 -2.62252821 103.13911251 -2.62652588 100.54264832 C-2.64025024 94.40146934 -2.6717916 88.26061746 -2.71192384 82.11956185 C-2.75662225 75.12812987 -2.77862367 68.13668434 -2.79870558 61.14514506 C-2.84052404 46.76327716 -2.91088808 32.38164868 -3 18 C-3.66 18 -4.32 18 -5 18 C-5 17.34 -5 16.68 -5 16 C-10.69680184 13.55001841 -16.18030018 11.54254461 -22.28515625 10.39453125 C-24 10 -24 10 -25 9 C-33.57298088 7.66202033 -42.41224769 7.89527547 -51.0625 7.875 C-52.69336548 7.86811157 -52.69336548 7.86811157 -54.35717773 7.86108398 C-67.60472893 7.37994785 -67.60472893 7.37994785 -80 11 Z M-55 305 C-55 305.66 -55 306.32 -55 307 C-55.66 307 -56.32 307 -57 307 C-58.69072163 309.95778507 -59.2543982 312.09310674 -59.2746582 315.48974609 C-59.28419022 316.37101166 -59.29372223 317.25227722 -59.30354309 318.1602478 C-59.30263168 319.1051004 -59.30172028 320.049953 -59.30078125 321.0234375 C-59.30506638 322.00236969 -59.3093515 322.98130188 -59.31376648 323.98989868 C-59.31950536 326.05933866 -59.32001329 328.1287988 -59.31567383 330.19824219 C-59.31251851 333.35647218 -59.33596274 336.51376109 -59.36132812 339.671875 C-59.36360169 341.68489465 -59.36430435 343.69791682 -59.36328125 345.7109375 C-59.372491 346.65174164 -59.38170074 347.59254578 -59.39118958 348.56185913 C-59.35461846 353.7730506 -58.98413474 357.52153512 -56 362 C-53.04260472 363.31802884 -50.20202821 363.36478802 -47 363 C-44.44848032 361.15014823 -43.39023285 359.7804657 -42 357 C-41.88548051 355.55159977 -41.83063962 354.09823807 -41.80712891 352.64550781 C-41.79106598 351.74407043 -41.77500305 350.84263306 -41.75845337 349.91387939 C-41.71397383 345.7843907 -41.67292794 341.65506297 -41.64990234 337.52539062 C-41.6333544 335.34884948 -41.60607989 333.17236241 -41.56787109 330.99609375 C-41.51303284 327.85648428 -41.49121616 324.71814927 -41.4765625 321.578125 C-41.45389313 320.60917297 -41.43122375 319.64022095 -41.40786743 318.64190674 C-41.42184104 314.16037769 -41.50811949 310.98666401 -44.36865234 307.39746094 C-48.09293916 304.00420648 -50.24363825 303.41454608 -55 305 Z " fill="#080808" transform="translate(199,107)"/>
<path d="M0 0 C6.77083333 2.60416667 6.77083333 2.60416667 8.4375 5.9375 C8.5498055 8.06531954 8.5968534 10.19668446 8.61450195 12.32739258 C8.62107315 12.98289597 8.62764435 13.63839935 8.63441467 14.31376648 C8.65415056 16.48652254 8.66581117 18.65920946 8.67578125 20.83203125 C8.67985678 21.57417059 8.6839323 22.31630993 8.68813133 23.08093834 C8.70899391 27.00944109 8.72329444 30.9379089 8.73266602 34.86645508 C8.74372745 38.92194122 8.77812302 42.97687821 8.81783772 47.0321703 C8.84399875 50.15232861 8.85235738 53.27235602 8.85594749 56.39261436 C8.8608153 57.88733311 8.87243498 59.38204593 8.89098549 60.87665749 C8.91536663 62.97135377 8.91441488 65.06462874 8.9074707 67.15942383 C8.91627007 68.94573967 8.91627007 68.94573967 8.92524719 70.7681427 C8.33971101 74.57292807 7.10473552 76.21522588 4.4375 78.9375 C1.66649606 80.32300197 -0.4959706 80.1252467 -3.5625 79.9375 C-4.5525 79.2775 -5.5425 78.6175 -6.5625 77.9375 C-6.5625 77.2775 -6.5625 76.6175 -6.5625 75.9375 C-7.2225 75.9375 -7.8825 75.9375 -8.5625 75.9375 C-9.6220964 72.472957 -9.68931919 69.2843873 -9.69189453 65.671875 C-9.69504669 64.40375977 -9.69819885 63.13564453 -9.70144653 61.82910156 C-9.69965658 60.44856735 -9.69760559 59.06803346 -9.6953125 57.6875 C-9.6959864 56.26790348 -9.69695715 54.84830707 -9.69821167 53.42871094 C-9.69968456 50.45636901 -9.6975472 47.48405717 -9.69287109 44.51171875 C-9.68717405 40.70527755 -9.69045523 36.89890687 -9.69644356 33.09246826 C-9.70006019 30.16194123 -9.69890551 27.23143086 -9.69631577 24.30090332 C-9.69564955 22.89750154 -9.69646425 21.49409824 -9.69879532 20.09069824 C-9.70133986 18.12817413 -9.69677278 16.1656447 -9.69189453 14.203125 C-9.69109894 13.08711914 -9.69030334 11.97111328 -9.68948364 10.82128906 C-9.57849778 8.3008083 -9.45296953 6.28905026 -8.5625 3.9375 C-3.77069987 -0.09196829 -3.77069987 -0.09196829 0 0 Z " fill="#1A1A1A" transform="translate(131.5625,143.0625)"/>
<path d="M0 0 C3.90812139 0.43423571 5.81613864 1.79048135 8.8125 4.3125 C9.57440186 7.5 9.57440186 7.5 9.58886719 11.3125 C9.5993811 12.00891602 9.60989502 12.70533203 9.62072754 13.42285156 C9.64709379 15.72031921 9.62967343 18.01500527 9.609375 20.3125 C9.6134177 21.91146374 9.61924161 23.51042388 9.62677002 25.109375 C9.63561175 28.45869087 9.62277403 31.80704593 9.59472656 35.15625 C9.56053808 39.44771797 9.58022371 43.73693494 9.61616135 48.02832031 C9.63785282 51.32959936 9.63093822 54.63034544 9.61539459 57.93164062 C9.61139469 59.51367459 9.6162951 61.09575709 9.63027191 62.67773438 C9.64553267 64.89062427 9.62227149 67.09988068 9.58886719 69.3125 C9.58409363 70.570625 9.57932007 71.82875 9.57440186 73.125 C8.8125 76.3125 8.8125 76.3125 5.99835205 78.75 C2.0261535 80.69816336 0.01125232 80.60442379 -4.1875 79.3125 C-5.625 77.25 -5.625 77.25 -6.1875 75.3125 C-6.8475 75.3125 -7.5075 75.3125 -8.1875 75.3125 C-8.30343167 66.40248073 -8.39223378 57.49272169 -8.44656086 48.58211231 C-8.47263747 44.44436282 -8.50799885 40.30712992 -8.56469727 36.16967773 C-8.6190881 32.17554854 -8.64893511 28.18191569 -8.66188622 24.18744469 C-8.67111359 22.6647733 -8.68913316 21.14212861 -8.71615028 19.61966896 C-8.75253836 17.48388957 -8.75744183 15.35015161 -8.75512695 13.21411133 C-8.76623001 11.9994368 -8.77733307 10.78476227 -8.78877258 9.53327942 C-8.0204075 5.41745159 -6.33531317 3.96718853 -3.1875 1.3125 C-2.1875 0.3125 -2.1875 0.3125 0 0 Z " fill="#050505" transform="translate(165.1875,142.6875)"/>
<path d="M0 0 C-15.38129508 9.5217541 -30.59913584 13.26274628 -48.5546875 13.0703125 C-49.46855225 13.06523682 -50.38241699 13.06016113 -51.32397461 13.05493164 C-53.54940726 13.0418323 -55.77465636 13.02343732 -58 13 C-57.91614987 27.29050006 -57.82090395 41.58088502 -57.71247292 55.87122059 C-57.66246199 62.50632944 -57.61613237 69.141422 -57.578125 75.77661133 C-57.54133284 82.17627327 -57.49498944 88.57580043 -57.44193649 94.97534752 C-57.42336023 97.42062714 -57.40826432 99.86593569 -57.39665604 102.31125832 C-57.37984895 105.72823608 -57.35082711 109.14490294 -57.31884766 112.56176758 C-57.31668747 113.57956299 -57.31452728 114.5973584 -57.31230164 115.64599609 C-57.30113815 116.57567703 -57.28997467 117.50535797 -57.2784729 118.46321106 C-57.27294214 119.27162351 -57.26741138 120.08003595 -57.26171303 120.91294575 C-57.11968993 123.3045665 -57.11968993 123.3045665 -55 126 C-57.16874252 125.49396008 -58.99967627 125.00016187 -61 124 C-61 86.71 -61 49.42 -61 11 C-50.605 10.505 -50.605 10.505 -40 10 C-33.17061335 8.89258923 -33.17061335 8.89258923 -26.37109375 7.62109375 C-23 7 -23 7 -19 7 C-19 6.34 -19 5.68 -19 5 C-16.39985473 3.96772138 -13.79573631 2.94894848 -11.1875 1.9375 C-10.44951172 1.64294922 -9.71152344 1.34839844 -8.95117188 1.04492188 C-3.33984375 -1.11328125 -3.33984375 -1.11328125 0 0 Z " fill="#848484" transform="translate(292,323)"/>
<path d="M0 0 C12.684342 1.153122 25.34125194 2.59347244 38 4 C38 47.89 38 91.78 38 137 C35.03 137.99 32.06 138.98 29 140 C31.625 136.125 31.625 136.125 35 135 C35.33 92.43 35.66 49.86 36 6 C30.72 6 25.44 6 20 6 C15.33203125 5.4140625 15.33203125 5.4140625 11.8125 4.625 C10.62269531 4.36976563 9.43289062 4.11453125 8.20703125 3.8515625 C5.34598247 3.09186867 2.71280513 2.17503801 0 1 C0 0.67 0 0.34 0 0 Z " fill="#6C6C6C" transform="translate(104,261)"/>
<path d="M0 0 C0 0.66 0 1.32 0 2 C-2.82941019 2.68889987 -5.66144997 3.35068716 -8.5 4 C-9.27214844 4.19078125 -10.04429687 4.3815625 -10.83984375 4.578125 C-16.40655548 5.82506843 -21.68145036 6.11287144 -27.35742188 6.0546875 C-28.09474548 6.05073975 -28.83206909 6.04679199 -29.59173584 6.04272461 C-31.39451782 6.0325002 -33.1972674 6.01680994 -35 6 C-35.00955225 22.75062607 -34.98498184 39.50079964 -34.9197216 56.25128555 C-34.8902171 64.02876047 -34.87190449 71.80596186 -34.87988281 79.58349609 C-34.88680795 86.36197145 -34.87279147 93.14002358 -34.83356392 99.9183948 C-34.8135229 103.5080744 -34.80401268 107.09708924 -34.81957626 110.68680573 C-34.83655401 114.69316066 -34.80677947 118.69785355 -34.77294922 122.70410156 C-34.78517014 123.89596573 -34.79739105 125.0878299 -34.8099823 126.31581116 C-34.95400962 131.87269277 -34.95400962 131.87269277 -32.61285782 136.64342499 C-30.81894147 137.93865496 -30.81894147 137.93865496 -28 139 C-28.99 139.99 -28.99 139.99 -30 141 C-30 140.34 -30 139.68 -30 139 C-32.31 138.34 -34.62 137.68 -37 137 C-37 93.44 -37 49.88 -37 5 C-31.555 4.505 -31.555 4.505 -26 4 C-25.34 3.67 -24.68 3.34 -24 3 C-21.54151021 2.63151441 -19.09191555 2.29902007 -16.625 2 C-0.25477707 -0.00707714 -0.25477707 -0.00707714 0 0 Z " fill="#A2A2A2" transform="translate(192,261)"/>
<path d="M0 0 C2.475 0.99 2.475 0.99 5 2 C5.13901003 11.31840011 5.24562484 20.63644348 5.31087303 29.95565414 C5.34218905 34.28298305 5.384665 38.60960275 5.45263672 42.93652344 C5.51782239 47.11221534 5.55370401 51.28722512 5.56926346 55.46338654 C5.5803515 57.0566914 5.60200486 58.64995884 5.63438034 60.24297333 C5.6779388 62.47497741 5.6839352 64.70416283 5.68115234 66.93652344 C5.69447601 68.20671326 5.70779968 69.47690308 5.7215271 70.7855835 C5 74 5 74 2.19180298 76.44146729 C-1.78371532 78.38268213 -3.80089182 78.29203329 -8 77 C-9.4375 74.9375 -9.4375 74.9375 -10 73 C-10.66 73 -11.32 73 -12 73 C-12.04631189 64.05534682 -12.08186333 55.11073482 -12.10362434 46.16598797 C-12.11406779 42.01271522 -12.12823719 37.85952441 -12.15087891 33.70629883 C-12.17258734 29.69925441 -12.1845644 25.69228888 -12.18975449 21.6851902 C-12.19345384 20.15535045 -12.20067765 18.62551508 -12.21146011 17.09570885 C-12.22594863 14.95523067 -12.22797908 12.81507975 -12.22705078 10.67456055 C-12.231492 9.45544479 -12.23593323 8.23632904 -12.24050903 6.98027039 C-12 4 -12 4 -10 1 C-9.34 1 -8.68 1 -8 1 C-8.24349686 1.78665543 -8.24349686 1.78665543 -8.49191284 2.58920288 C-9.13232654 5.62786954 -9.12729145 8.4658692 -9.12939453 11.57275391 C-9.13114685 12.22361465 -9.13289917 12.8744754 -9.13470459 13.5450592 C-9.13909358 15.68892103 -9.13619623 17.83269989 -9.1328125 19.9765625 C-9.13348622 21.46821102 -9.13445682 22.95985943 -9.13571167 24.45150757 C-9.1371845 27.57347665 -9.13504679 30.69541707 -9.13037109 33.81738281 C-9.12466415 37.82355838 -9.12796152 41.82966709 -9.13394356 45.83584023 C-9.13755192 48.91383369 -9.13640949 51.99181121 -9.13381577 55.06980515 C-9.13314777 56.54742821 -9.13397048 58.02505271 -9.13629532 59.5026741 C-9.13882742 61.56383365 -9.13497383 63.62488378 -9.12939453 65.68603516 C-9.12859894 66.85977692 -9.12780334 68.03351868 -9.12698364 69.24282837 C-9.18857948 71.96083282 -9.18857948 71.96083282 -8 74 C-4.60867549 74.84172822 -4.60867549 74.84172822 -1 75 C0.485 74.01 0.485 74.01 2 73 C2.47966252 69.96955459 2.47966252 69.96955459 2.43237305 66.34716797 C2.4425647 65.66412598 2.45275635 64.98108398 2.46325684 64.27734375 C2.49349516 62.01554275 2.5026688 59.75416444 2.51171875 57.4921875 C2.5285575 55.92561422 2.54670665 54.35905452 2.56611633 52.79251099 C2.61371022 48.66616051 2.64345853 44.53986505 2.66955566 40.41333008 C2.69931409 36.2038282 2.74586049 31.99451614 2.79101562 27.78515625 C2.87715541 19.52353055 2.94445285 11.26188774 3 3 C2.34 3 1.68 3 1 3 C0.67 2.01 0.34 1.02 0 0 Z " fill="#717171" transform="translate(169,145)"/>
<path d="M0 0 C11.87712428 -0.35930796 23.03106384 0.86010132 35 2 C35 38.96 35 75.92 35 114 C33.02 114.495 33.02 114.495 31 115 C31 114.34 31 113.68 31 113 C31.66 113 32.32 113 33 113 C33 76.7 33 40.4 33 3 C26.4 3 19.8 3 13 3 C4.28125 1.875 4.28125 1.875 0 1 C0 0.67 0 0.34 0 0 Z " fill="#696969" transform="translate(386,333)"/>
<path d="M0 0 C-2.22189824 2.22189824 -4.08482708 2.92598892 -7 4 C-7.00423194 4.61145056 -7.00846388 5.22290112 -7.01282406 5.85288048 C-7.11603446 20.71642936 -7.2246577 35.57993122 -7.33933926 50.44339561 C-7.39466675 57.6311924 -7.44814797 64.81899415 -7.49731445 72.00683594 C-7.5401621 78.27022201 -7.58644155 84.53357161 -7.63687855 90.79690135 C-7.66347484 94.11466556 -7.68781603 97.43242171 -7.70907402 100.75022507 C-7.73306978 104.44990863 -7.76313092 108.14949532 -7.79467773 111.84912109 C-7.8004332 112.95466843 -7.80618866 114.06021576 -7.81211853 115.19926453 C-7.82190735 116.20329819 -7.83169617 117.20733185 -7.84178162 118.24179077 C-7.85146044 119.55534577 -7.85146044 119.55534577 -7.8613348 120.89543724 C-8 123 -8 123 -9 125 C-9.66 125 -10.32 125 -11 125 C-10.67 84.41 -10.34 43.82 -10 2 C-5.7900275 0.316011 -4.21047434 -0.24059853 0 0 Z " fill="#6C6C6C" transform="translate(444,329)"/>
<path d="M0 0 C4.08359816 0.13894957 8.16679956 0.28734938 12.25 0.4375 C13.40886719 0.47681641 14.56773437 0.51613281 15.76171875 0.55664062 C16.87675781 0.59853516 17.99179687 0.64042969 19.140625 0.68359375 C20.16704102 0.72025146 21.19345703 0.75690918 22.25097656 0.79467773 C25 1 25 1 26.92739868 1.50474548 C30.44138429 2.34442325 34.03832716 2.14185914 37.6328125 2.1328125 C38.46585907 2.13376923 39.29890564 2.13472595 40.15719604 2.13571167 C41.91388017 2.13639092 43.67056682 2.13455443 45.42724609 2.13037109 C48.12212722 2.12500572 50.8168427 2.13033162 53.51171875 2.13671875 C55.21875037 2.13605819 56.92578188 2.13477748 58.6328125 2.1328125 C59.44114532 2.13483673 60.24947815 2.13686096 61.08230591 2.13894653 C65.17276094 2.22247191 65.17276094 2.22247191 69 1 C77.64422914 0.03556121 86.31092846 -0.14322645 95 0 C94.67 0.66 94.34 1.32 94 2 C90.70716618 2.92450914 87.26457286 3.21096595 83.875 3.625 C82.2657666 3.82174316 82.2657666 3.82174316 80.62402344 4.02246094 C69.83869036 5.17365396 59.0867646 5.27080089 48.25 5.25 C46.94914459 5.24870087 46.94914459 5.24870087 45.62200928 5.24737549 C43.12807529 5.24094341 40.63446981 5.22478524 38.140625 5.203125 C37.39259613 5.1987442 36.64456726 5.1943634 35.87387085 5.18984985 C32.11558287 5.13901034 28.66387265 4.80725549 25 4 C23.01697968 3.79417179 21.03077006 3.61775154 19.04296875 3.46484375 C17.37524414 3.33432617 17.37524414 3.33432617 15.67382812 3.20117188 C14.52333984 3.11416016 13.37285156 3.02714844 12.1875 2.9375 C11.01767578 2.84662109 9.84785156 2.75574219 8.64257812 2.66210938 C5.76191563 2.43871106 2.88106738 2.21810394 0 2 C0 1.34 0 0.68 0 0 Z " fill="#585858" transform="translate(278,459)"/>
<path d="M0 0 C1.32 0.33 2.64 0.66 4 1 C4.01030746 1.86917557 4.02061493 2.73835114 4.03123474 3.63386536 C4.32650737 28.4229552 4.64355085 53.21170879 5 78 C5.00990967 78.69151154 5.01981934 79.38302307 5.0300293 80.0954895 C5.13225674 87.19188707 5.24450642 94.28790162 5.38577271 101.38363647 C5.42007882 103.16028851 5.45109922 104.93700723 5.47872925 106.71377563 C5.5168994 109.11286582 5.56704636 111.51137902 5.62109375 113.91015625 C5.6461499 115.20058838 5.67120605 116.49102051 5.69702148 117.82055664 C6.07288958 121.76490008 6.86207605 123.92386377 9.7265625 126.6328125 C10.35304687 127.12523437 10.97953125 127.61765625 11.625 128.125 C13.5390625 129.6328125 13.5390625 129.6328125 15 131 C15 131.66 15 132.32 15 133 C13.35 132.34 11.7 131.68 10 131 C10 130.34 10 129.68 10 129 C9.1028125 128.62875 9.1028125 128.62875 8.1875 128.25 C5.61242493 126.77852853 4.56076207 125.5146965 3 123 C2.61523914 120.63372421 2.61523914 120.63372421 2.60127258 117.96331787 C2.58873444 116.94812073 2.57619629 115.93292358 2.5632782 114.88696289 C2.56471329 113.77925537 2.56614838 112.67154785 2.56762695 111.53027344 C2.5574353 110.35926086 2.54724365 109.18824829 2.53674316 107.98175049 C2.50652669 104.1075772 2.49733371 100.23365082 2.48828125 96.359375 C2.47308798 93.67464017 2.45343765 90.98994296 2.43388367 88.30523682 C2.3902151 81.95885496 2.36167042 75.61249881 2.33856028 69.26601243 C2.31151046 62.03986248 2.26759887 54.81384578 2.22227156 47.58779097 C2.12942026 32.72526826 2.05774179 17.86270222 2 3 C1.34 2.67 0.68 2.34 0 2 C0 1.34 0 0.68 0 0 Z " fill="#676767" transform="translate(214,330)"/>
<path d="M0 0 C0.625 1.875 0.625 1.875 1 4 C0.34 4.66 -0.32 5.32 -1 6 C-1.30608347 8.24007143 -1.30608347 8.24007143 -1.25878906 10.85766602 C-1.26509338 11.86954483 -1.27139771 12.88142365 -1.27789307 13.92396545 C-1.2738446 15.02284592 -1.26979614 16.12172638 -1.265625 17.25390625 C-1.26753845 18.38392563 -1.2694519 19.51394501 -1.27142334 20.6782074 C-1.27278698 23.07657086 -1.26907814 25.47494165 -1.26074219 27.87329102 C-1.25011466 31.52312128 -1.26059561 35.17245147 -1.2734375 38.82226562 C-1.27211458 41.15364691 -1.26954944 43.48502789 -1.265625 45.81640625 C-1.26967346 46.9011171 -1.27372192 47.98582794 -1.27789307 49.10340881 C-1.23963518 55.3779158 -0.59739131 60.92729565 1 67 C0.01 67 -0.98 67 -2 67 C-5.55493361 60.83811507 -5.15949879 53.96900227 -5.16796875 47.0703125 C-5.17129715 46.1211496 -5.17462555 45.17198669 -5.17805481 44.19406128 C-5.18310268 42.19204185 -5.1854638 40.19001407 -5.18530273 38.18798828 C-5.18748773 35.14211014 -5.20566224 32.09659535 -5.22460938 29.05078125 C-5.22754413 27.09895956 -5.22952838 25.14713617 -5.23046875 23.1953125 C-5.23765427 22.29297882 -5.24483978 21.39064514 -5.25224304 20.46096802 C-5.22534935 12.93522264 -4.37660483 6.36597066 0 0 Z " fill="#838383" transform="translate(127,406)"/>
<path d="M0 0 C2.56086768 2.56086768 2.25288281 3.50346965 2.26069641 7.05950928 C2.26778122 8.13059937 2.27486603 9.20168945 2.28216553 10.30523682 C2.27968811 11.48551453 2.27721069 12.66579224 2.2746582 13.88183594 C2.2823246 15.74050293 2.2823246 15.74050293 2.29014587 17.63671875 C2.30169067 21.04193332 2.30411092 24.44690501 2.30158257 27.85212231 C2.30051423 30.69488174 2.30539305 33.53761863 2.310188 36.38037324 C2.321295 43.08986225 2.32171484 49.7992953 2.31567383 56.50878906 C2.30964102 63.42634833 2.32192455 70.34370383 2.3432439 77.26122832 C2.36087573 83.20102921 2.36685851 89.14076535 2.36360615 95.08059144 C2.36179461 98.62767459 2.3644158 102.17461262 2.37832069 105.72167206 C2.39326091 109.68139081 2.38391499 113.64085175 2.37231445 117.60058594 C2.38378006 119.35885712 2.38378006 119.35885712 2.39547729 121.15264893 C2.35241957 127.79683 2.04748772 132.77324829 -2.7265625 137.828125 C-7.62891858 141.49984848 -11.92900245 143.18491237 -18 144 C-17.34 143.67 -16.68 143.34 -16 143 C-16 142.34 -16 141.68 -16 141 C-15.25234375 140.72027344 -14.5046875 140.44054687 -13.734375 140.15234375 C-7.05611624 137.60651485 -7.05611624 137.60651485 -2.375 132.5 C-0.52771538 127.79782097 0.1253557 123.72607824 0.12025452 118.69120789 C0.12162918 117.64097946 0.12300385 116.59075104 0.12442017 115.50869751 C0.12082489 114.36718231 0.11722961 113.22566711 0.11352539 112.04956055 C0.11367142 110.83938766 0.11381744 109.62921478 0.1139679 108.38237 C0.11339145 105.07282968 0.10838317 101.76335207 0.10139394 98.45382285 C0.09513404 94.99182556 0.09455451 91.52982739 0.09336853 88.06782532 C0.09026299 81.51602985 0.08206007 74.96425112 0.07201904 68.41246301 C0.06083378 60.95179 0.05534137 53.49111618 0.05032361 46.03043687 C0.03987681 30.68694824 0.02229242 15.34347628 0 0 Z " fill="#7F7F7F" transform="translate(210,117)"/>
<path d="M0 0 C1.89492187 0.15275391 1.89492187 0.15275391 3.828125 0.30859375 C4.79234375 0.39238281 5.7565625 0.47617188 6.75 0.5625 C6.75 0.8925 6.75 1.2225 6.75 1.5625 C5.93015625 1.61148438 5.1103125 1.66046875 4.265625 1.7109375 C3.18796875 1.78570312 2.1103125 1.86046875 1 1.9375 C-0.60101563 2.04191406 -0.60101563 2.04191406 -2.234375 2.1484375 C-5.13758698 2.54706505 -6.7095216 3.21459332 -9.25 4.5625 C-12.24454355 5.34923703 -15.25447772 6.01481808 -18.27734375 6.68359375 C-22.64004098 7.91718052 -22.64004098 7.91718052 -26.25 10.5625 C-27.04818419 14.2356096 -26.93925008 17.89758298 -26.90942383 21.64331055 C-26.91990753 22.78491638 -26.93039124 23.92652222 -26.94119263 25.10272217 C-26.97004901 28.88516059 -26.96363822 32.66668951 -26.95703125 36.44921875 C-26.97013976 39.06811171 -26.98544135 41.68699454 -27.00285339 44.30586243 C-27.04032984 50.50005433 -27.05244347 56.69402667 -27.0554778 62.88832074 C-27.06016477 69.94035722 -27.09307632 76.99217322 -27.12837565 84.04411256 C-27.2003544 98.55019817 -27.23683396 113.05624335 -27.25 127.5625 C-27.58 127.5625 -27.91 127.5625 -28.25 127.5625 C-28.34339155 112.22909176 -28.41395373 96.89569664 -28.45724869 81.56206799 C-28.47788459 74.44256782 -28.50602448 67.32324425 -28.55175781 60.20385742 C-28.59584525 53.33742403 -28.61911621 46.47117451 -28.62950897 39.60460854 C-28.63691835 36.98064594 -28.65138642 34.35669376 -28.67292023 31.73280907 C-28.70181971 28.06668484 -28.7059615 24.40132661 -28.70410156 20.73510742 C-28.71848267 19.6425061 -28.73286377 18.54990479 -28.74768066 17.42419434 C-28.74218201 16.42720016 -28.73668335 15.43020599 -28.73101807 14.40299988 C-28.73470524 13.53559268 -28.73839241 12.66818548 -28.74219131 11.77449322 C-28.25 9.5625 -28.25 9.5625 -26.34493637 7.75996876 C-24.25 6.5625 -24.25 6.5625 -22.25 6.5625 C-22.25 5.9025 -22.25 5.2425 -22.25 4.5625 C-18.42679443 3.13991188 -15.33718695 2.32207724 -11.25 2.5625 C-11.25 1.9025 -11.25 1.2425 -11.25 0.5625 C-7.43483536 -0.73812431 -3.97438237 -0.33119853 0 0 Z " fill="#999999" transform="translate(128.25,114.4375)"/>
<path d="M0 0 C3 1 3 1 4 3 C4.1123055 5.12781954 4.1593534 7.25918446 4.17700195 9.38989258 C4.18357315 10.04539597 4.19014435 10.70089935 4.19691467 11.37626648 C4.21665056 13.54902254 4.22831117 15.72170946 4.23828125 17.89453125 C4.24235678 18.63667059 4.2464323 19.37880993 4.25063133 20.14343834 C4.27149391 24.07194109 4.28579444 28.0004089 4.29516602 31.92895508 C4.30622745 35.98444122 4.34062302 40.03937821 4.38033772 44.0946703 C4.40649875 47.21482861 4.41485738 50.33485602 4.41844749 53.45511436 C4.4233153 54.94983311 4.43493498 56.44454593 4.45348549 57.93915749 C4.47786663 60.03385377 4.47691488 62.12712874 4.4699707 64.22192383 C4.47583694 65.41280106 4.48170319 66.60367828 4.48774719 67.8306427 C3.90221101 71.63542807 2.66723552 73.27772588 0 76 C-2.77100394 77.38550197 -4.9334706 77.1877467 -8 77 C-8.99 76.34 -9.98 75.68 -11 75 C-10.505 74.01 -10.505 74.01 -10 73 C-8.3603125 73.2784375 -8.3603125 73.2784375 -6.6875 73.5625 C-3.06375867 74.2578068 -3.06375867 74.2578068 0 73 C1.30560436 70.38879128 1.12708537 68.4715498 1.12939453 65.54736328 C1.13254669 64.40502228 1.13569885 63.26268127 1.13894653 62.08572388 C1.1369223 60.84313812 1.13489807 59.60055237 1.1328125 58.3203125 C1.13376923 57.04203583 1.13472595 55.76375916 1.13571167 54.44674683 C1.13718867 51.73141276 1.13503752 49.01611151 1.13037109 46.30078125 C1.12473069 42.85378906 1.12791615 39.40687572 1.13394356 35.95988655 C1.13847825 32.64252265 1.13527694 29.32517862 1.1328125 26.0078125 C1.13584885 24.17429733 1.13584885 24.17429733 1.13894653 22.30374146 C1.11885173 14.82044962 0.74751179 7.44624041 0 0 Z " fill="#CBCBCB" transform="translate(136,146)"/>
<path d="M0 0 C-0.99 0.66 -1.98 1.32 -3 2 C-3.99 1.67 -4.98 1.34 -6 1 C-7.4510876 0.90404268 -8.90611244 0.86192003 -10.36035156 0.85473633 C-11.23846497 0.84835648 -12.11657837 0.84197662 -13.02130127 0.83540344 C-13.9681781 0.83429062 -14.91505493 0.8331778 -15.890625 0.83203125 C-16.86860046 0.82870285 -17.84657593 0.82537445 -18.85418701 0.82194519 C-20.92541026 0.81688029 -22.99664166 0.81453673 -25.06787109 0.81469727 C-28.22377145 0.81251811 -31.37931809 0.79437793 -34.53515625 0.77539062 C-36.54947797 0.77245508 -38.56380136 0.77047136 -40.578125 0.76953125 C-41.51690491 0.76234573 -42.45568481 0.75516022 -43.4229126 0.74775696 C-48.69941393 0.76598244 -52.99859684 1.31791555 -58 3 C-59.78732513 3.31718728 -61.57908695 3.61073652 -63.375 3.875 C-71.22291881 5.25296105 -77.54170722 8.36687692 -84 13 C-84.63421875 13.44988281 -85.2684375 13.89976563 -85.921875 14.36328125 C-87.61951458 15.56860535 -89.31037336 16.78346882 -91 18 C-91 15 -91 15 -89.125 12.8125 C-87 11 -87 11 -85 11 C-84.67 10.01 -84.34 9.02 -84 8 C-82.68 8 -81.36 8 -80 8 C-80 7.34 -80 6.68 -80 6 C-79.32453125 5.80664062 -78.6490625 5.61328125 -77.953125 5.4140625 C-76.61507812 5.02347656 -76.61507812 5.02347656 -75.25 4.625 C-74.36828125 4.36976562 -73.4865625 4.11453125 -72.578125 3.8515625 C-70.04510094 3.08978469 -70.04510094 3.08978469 -67.99609375 1.96484375 C-51.03836176 -6.23194647 -17.83241936 -4.05747209 0 0 Z " fill="#878787" transform="translate(178,100)"/>
<path d="M0 0 C3.08665149 4.02606716 4.12481452 6.12740515 4.19287109 11.22485352 C4.20893402 12.31681534 4.22499695 13.40877716 4.24154663 14.53382874 C4.28604335 19.5499716 4.32709426 24.56598103 4.35009766 29.58227539 C4.36662137 32.22331577 4.39386334 34.8643121 4.43212891 37.50512695 C4.4870857 41.31745563 4.50880573 45.12873395 4.5234375 48.94140625 C4.54610687 50.11361221 4.56877625 51.28581818 4.59213257 52.49354553 C4.57392098 59.61211989 3.77992309 65.44080328 -1 71 C-3.16983032 72.23805237 -3.16983032 72.23805237 -5 73 C-4.57195068 72.30261719 -4.14390137 71.60523438 -3.70288086 70.88671875 C2.7935037 58.48272293 1.70159732 45.67968929 1.4375 32 C1.41593653 29.56122017 1.3970354 27.12241527 1.38085938 24.68359375 C1.50760352 12.27228942 1.50760352 12.27228942 0 0 Z " fill="#696969" transform="translate(170,407)"/>
<path d="M0 0 C6.97211065 -0.60104402 6.97211065 -0.60104402 11.10916138 1.81803894 C13.18473018 3.62071429 13.91865454 4.63904161 14.52834702 7.34446144 C14.70050302 10.37966664 14.6759346 13.36063355 14.58935547 16.3996582 C14.58047806 17.55130966 14.57160065 18.70296112 14.56245422 19.88951111 C14.52600297 23.69421136 14.4467785 27.4967591 14.3671875 31.30078125 C14.33355799 33.93919199 14.30259736 36.57763799 14.27420044 39.21611023 C14.20261024 45.44966746 14.10023034 51.68232176 13.98673165 57.91524142 C13.85899035 65.01287332 13.76565619 72.11082785 13.67518401 79.2090174 C13.48835552 93.80666644 13.258407 108.40344482 13 123 C12.01 123 11.02 123 10 123 C10.495 122.505 10.495 122.505 11 122 C11.10787538 120.49491801 11.14682432 118.98483684 11.15821838 117.47593689 C11.1680072 116.49852036 11.17779602 115.52110382 11.18788147 114.5140686 C11.19363693 113.43297821 11.1993924 112.35188782 11.20532227 111.23803711 C11.21522186 110.1064769 11.22512146 108.97491669 11.23532104 107.80906677 C11.26704594 104.04851411 11.29173675 100.28794879 11.31640625 96.52734375 C11.3369663 93.92802085 11.3579625 91.32870136 11.37937927 88.72938538 C11.42903619 82.57414586 11.47427596 76.41888822 11.51740164 70.26359993 C11.56673197 63.25763291 11.62166564 56.25171339 11.67708123 49.24579227 C11.79097692 34.83057277 11.89779936 20.41530692 12 6 C11.34 6 10.68 6 10 6 C10 5.34 10 4.68 10 4 C9.46375 3.87625 8.9275 3.7525 8.375 3.625 C5.5361714 2.87793984 2.77776798 1.94696636 0 1 C0 0.67 0 0.34 0 0 Z " fill="#636363" transform="translate(184,119)"/>
<path d="M0 0 C1.26148619 2.52297238 1.11743564 4.23514587 1.10679626 7.05950928 C1.10528061 8.13059937 1.10376495 9.20168945 1.10220337 10.30523682 C1.095466 11.48551453 1.08872864 12.66579224 1.08178711 13.88183594 C1.07872055 15.12094727 1.07565399 16.36005859 1.07249451 17.63671875 C1.06532461 20.33555892 1.05637083 23.03432883 1.04459953 25.73314667 C1.02632651 30.00277489 1.0167124 34.27239504 1.00868225 38.54205322 C0.98451765 50.68464681 0.94871296 62.82719164 0.90405273 74.96972656 C0.87947352 81.6733418 0.86212935 88.37693771 0.85249335 95.08059144 C0.84596054 99.32232548 0.83042176 103.5639004 0.80817592 107.80557966 C0.79365467 111.07056897 0.79226186 114.33556901 0.78881836 117.60058594 C0.78005676 118.77276672 0.77129517 119.94494751 0.76226807 121.15264893 C0.76869037 126.48271475 0.79688847 131.03242994 3 136 C2.34 136 1.68 136 1 136 C-1.23936143 132.64095786 -1.24944345 131.55879301 -1.24723816 127.63473511 C-1.25143265 126.52138794 -1.25562714 125.40804077 -1.25994873 124.26095581 C-1.25432922 123.0390152 -1.24870972 121.81707458 -1.24291992 120.55810547 C-1.24576744 118.62865082 -1.24576744 118.62865082 -1.24867249 116.66021729 C-1.25352215 113.1314675 -1.24586439 109.60284406 -1.23571944 106.07410955 C-1.22694396 102.38568099 -1.22869627 98.69725645 -1.2290802 95.00881958 C-1.22814353 88.81656781 -1.21945796 82.62436502 -1.20581055 76.43212891 C-1.19007113 69.26401185 -1.18481291 62.09594841 -1.1855461 54.92781532 C-1.18615551 48.04056481 -1.18105893 41.15333183 -1.17275429 34.26608658 C-1.16921585 31.33068836 -1.16739025 28.39529634 -1.16686058 25.45989609 C-1.16567358 21.36760656 -1.15597803 17.27538113 -1.14526367 13.18310547 C-1.14571686 11.95711639 -1.14617004 10.73112732 -1.14663696 9.46798706 C-1.14023949 7.80642578 -1.14023949 7.80642578 -1.13371277 6.11129761 C-1.13203692 5.14270247 -1.13036108 4.17410732 -1.12863445 3.17616081 C-1 1 -1 1 0 0 Z " fill="#1F1F1F" transform="translate(87,117)"/>
<path d="M0 0 C1.32 0 2.64 0 4 0 C4 0.66 4 1.32 4 2 C4.639375 2.268125 5.27875 2.53625 5.9375 2.8125 C8 4 8 4 9 7 C9.10103901 8.48687835 9.14829193 9.97776552 9.16113281 11.46801758 C9.17074036 12.36937943 9.1803479 13.27074127 9.19024658 14.19941711 C9.19449646 15.17130478 9.19874634 16.14319244 9.203125 17.14453125 C9.20882507 18.14707443 9.21452515 19.14961761 9.22039795 20.18254089 C9.2298466 22.30503281 9.2363814 24.42753938 9.24023438 26.55004883 C9.24993112 29.78948726 9.28095248 33.02828884 9.3125 36.26757812 C9.31903113 38.3307254 9.32428117 40.39387721 9.328125 42.45703125 C9.3404718 43.42284622 9.3528186 44.38866119 9.36553955 45.38374329 C9.3482458 50.63230962 9.09753272 54.53380058 6 59 C2.07703567 60.30765478 -0.86002433 60.1971417 -5 60 C-5.66 59.34 -6.32 58.68 -7 58 C-3.37 58 0.26 58 4 58 C5.62796324 53.93009191 6.25153792 52.33448515 6.29052734 48.2890625 C6.30328705 47.38462402 6.31604675 46.48018555 6.32919312 45.54833984 C6.33141876 44.5836377 6.33364441 43.61893555 6.3359375 42.625 C6.3425943 41.62291504 6.3492511 40.62083008 6.35610962 39.58837891 C6.36621641 37.47365144 6.37092725 35.35889221 6.37060547 33.24414062 C6.37498485 30.01118555 6.41134307 26.77958929 6.44921875 23.546875 C6.45508607 21.48958799 6.45905603 19.43229451 6.4609375 17.375 C6.47530853 16.41029785 6.48967957 15.4455957 6.50448608 14.45166016 C6.47509018 10.13089541 6.44034523 7.69931204 4.09619141 3.9765625 C3.05857666 2.99816406 3.05857666 2.99816406 2 2 C1.34 1.34 0.68 0.68 0 0 Z " fill="#7A7A7A" transform="translate(150,411)"/>
<path d="M0 0 C-0.99 0.33 -1.98 0.66 -3 1 C-3 1.66 -3 2.32 -3 3 C-5.22681972 3.63447422 -7.45597759 4.25744424 -9.6875 4.875 C-10.92886719 5.22304687 -12.17023438 5.57109375 -13.44921875 5.9296875 C-24.53293083 8.68856525 -35.3604927 9.29337115 -46.75 9.1875 C-48.12760355 9.18603861 -49.50520819 9.18538373 -50.8828125 9.18554688 C-60.85925752 9.14074248 -60.85925752 9.14074248 -62 8 C-64.32817964 7.63239269 -66.6618385 7.29758419 -69 7 C-69 6.67 -69 6.34 -69 6 C-67.95247559 6.01047363 -66.90495117 6.02094727 -65.82568359 6.03173828 C-61.87080418 6.06844183 -57.91593919 6.09108003 -53.9609375 6.10986328 C-52.26201836 6.11980786 -50.56311581 6.13336831 -48.86425781 6.15087891 C-35.26795105 6.28732354 -22.21487491 5.9184424 -9.25 1.3125 C-2.24916574 -1.12458287 -2.24916574 -1.12458287 0 0 Z " fill="#757575" transform="translate(194,244)"/>
<path d="M0 0 C0.33 0 0.66 0 1 0 C1 36.63 1 73.26 1 111 C2.32 111.66 3.64 112.32 5 113 C3.515 113.495 3.515 113.495 2 114 C0 112 0 112 -0.24609566 110.00475883 C-0.24425207 109.18067591 -0.24240849 108.35659298 -0.24050903 107.50753784 C-0.24325836 106.56240326 -0.24600769 105.61726868 -0.24884033 104.64349365 C-0.24164978 103.60340149 -0.23445923 102.56330933 -0.22705078 101.49169922 C-0.22734283 100.39900726 -0.22763489 99.30631531 -0.22793579 98.18051147 C-0.22653825 94.55515708 -0.21095699 90.93000615 -0.1953125 87.3046875 C-0.19158388 84.79647941 -0.1887362 82.28826988 -0.18673706 79.78005981 C-0.17987119 73.84437714 -0.16409528 67.90876016 -0.14403808 61.97311127 C-0.11951013 54.55370182 -0.1087526 47.13428335 -0.09765625 39.71484375 C-0.07618515 26.47652514 -0.04241739 13.23826721 0 0 Z " fill="#818181" transform="translate(232,335)"/>
<path d="M0 0 C1.16892955 2.3378591 1.10942516 3.66104249 1.08178711 6.26269531 C1.0752562 7.14411194 1.06872528 8.02552856 1.06199646 8.93365479 C1.05056107 9.88882996 1.03912567 10.84400513 1.02734375 11.828125 C1.01469219 13.84505034 1.00233162 15.86197751 0.99023438 17.87890625 C0.96545412 21.0630464 0.93753058 24.24709132 0.90405273 27.43115234 C0.87376934 30.50098262 0.8560457 33.57069257 0.83984375 36.640625 C0.82638412 37.58770325 0.8129245 38.53478149 0.79905701 39.51055908 C0.78048619 44.42443523 1.05988233 48.38964887 3 53 C0 52 0 52 -2 49 C-2.24050903 46.81697083 -2.24050903 46.81697083 -2.22705078 44.25317383 C-2.22689972 43.29240433 -2.22674866 42.33163483 -2.22659302 41.3417511 C-2.21627045 40.30729355 -2.20594788 39.272836 -2.1953125 38.20703125 C-2.1924826 37.14586594 -2.18965271 36.08470062 -2.18673706 34.99137878 C-2.17553184 31.59830503 -2.15042647 28.20549413 -2.125 24.8125 C-2.11497065 22.51367568 -2.10584472 20.21484724 -2.09765625 17.91601562 C-2.07559141 12.27725389 -2.04211044 6.63864572 -2 1 C-1.34 0.67 -0.68 0.34 0 0 Z " fill="#9E9E9E" transform="translate(140,416)"/>
<path d="M0 0 C0.66 0 1.32 0 2 0 C1.835 0.515625 1.67 1.03125 1.5 1.5625 C0.84065094 4.77682668 0.81824783 7.72846085 1 11 C2.87274099 13.30529658 2.87274099 13.30529658 5.8984375 13.23046875 C7.61933594 13.20919922 7.61933594 13.20919922 9.375 13.1875 C10.51710937 13.18105469 11.65921875 13.17460937 12.8359375 13.16796875 C15.41574329 13.0310161 17.54737531 12.75511844 20 12 C19.938125 11.236875 19.87625 10.47375 19.8125 9.6875 C20 7 20 7 21.375 5.375 C21.91125 4.92125 22.4475 4.4675 23 4 C23.66 3.01 24.32 2.02 25 1 C25.66 1 26.32 1 27 1 C25.86922864 4.91420857 24.91187063 7.20945732 22 10 C21.32650839 11.66392045 20.6590841 13.33032028 20 15 C17.01284862 16.49357569 13.96112064 16.22503435 10.6875 16.25 C9.37136719 16.27578125 8.05523437 16.3015625 6.69921875 16.328125 C2.8633691 15.98788068 1.0156299 15.33103099 -2 13 C-3.23621824 10.52756353 -2.98408601 9.22682061 -2.6875 6.5 C-2.60886719 5.7059375 -2.53023437 4.911875 -2.44921875 4.09375 C-2 2 -2 2 0 0 Z " fill="#2E2E2E" transform="translate(238,154)"/>
<path d="M0 0 C0 0.66 0 1.32 0 2 C-2.8083447 2.69052603 -5.61931049 3.35183831 -8.4375 4 C-9.20126953 4.19078125 -9.96503906 4.3815625 -10.75195312 4.578125 C-19.54340649 6.55531933 -26.3774824 6 -36 6 C-36 17.88 -36 29.76 -36 42 C-36.33 42 -36.66 42 -37 42 C-37 29.79 -37 17.58 -37 5 C-31.555 4.505 -31.555 4.505 -26 4 C-25.34 3.67 -24.68 3.34 -24 3 C-21.54151021 2.63151441 -19.09191555 2.29902007 -16.625 2 C-0.25477707 -0.00707714 -0.25477707 -0.00707714 0 0 Z " fill="#515151" transform="translate(192,261)"/>
<path d="M0 0 C11.7812416 -0.35640731 23.30024254 0.74059296 35 2 C35.02716089 5.02089478 35.04691657 8.04154129 35.0625 11.0625 C35.07087891 11.91005859 35.07925781 12.75761719 35.08789062 13.63085938 C35.10683006 18.5361722 34.83326345 23.16444755 34 28 C33.67 28 33.34 28 33 28 C33 19.75 33 11.5 33 3 C29.968125 3.04125 26.93625 3.0825 23.8125 3.125 C15.66246173 3.17956872 8.00433028 2.63592152 0 1 C0 0.67 0 0.34 0 0 Z " fill="#7D7D7D" transform="translate(386,333)"/>
<path d="M0 0 C0 0.66 0 1.32 0 2 C-0.99 2 -1.98 2 -3 2 C-3.33 2.99 -3.66 3.98 -4 5 C-5.38058594 5.67289062 -5.38058594 5.67289062 -6.7890625 6.359375 C-10.41323422 8.21114157 -11.94749275 10.01933979 -14.375 13.25 C-18.13162509 18.03635989 -21.99227862 22.48138522 -27 26 C-27.66 26 -28.32 26 -29 26 C-25.5272043 17.85822342 -9.83501815 0 0 0 Z " fill="#444444" transform="translate(281,119)"/>
<path d="M0 0 C0.99 0.33 1.98 0.66 3 1 C3.6875 3.0625 3.6875 3.0625 4 5 C4.66 5 5.32 5 6 5 C7.4606285 7.64738916 8 8.89448334 8 12 C8.54785156 11.97679687 9.09570312 11.95359375 9.66015625 11.9296875 C17.58535134 11.74927655 25.17815332 12.83193756 33 14 C32.67 14.66 32.34 15.32 32 16 C24.08 15.67 16.16 15.34 8 15 C7.01 13.02 6.02 11.04 5 9 C3.27773504 5.75150023 3.27773504 5.75150023 0 5 C0 3.35 0 1.7 0 0 Z " fill="#616161" transform="translate(397,141)"/>
<path d="M0 0 C0.85207031 0.30550781 1.70414062 0.61101562 2.58203125 0.92578125 C14.92437167 4.80480252 27.3080127 4.01098715 40 3 C40 3.66 40 4.32 40 5 C30.16254121 7.66134151 21.04315545 7.19663129 11 6 C11 5.34 11 4.68 11 4 C10.071875 4.185625 9.14375 4.37125 8.1875 4.5625 C5 5 5 5 2 4 C2 3.34 2 2.68 2 2 C1.34 2 0.68 2 0 2 C0 1.34 0 0.68 0 0 Z " fill="#535353" transform="translate(384,315)"/>
<path d="M0 0 C8.41145222 0.72239658 16.79843997 1.6173175 25.1875 2.5625 C27.0447168 2.77036133 27.0447168 2.77036133 28.93945312 2.98242188 C31.9597505 3.32060189 34.97992804 3.65981387 38 4 C38 4.66 38 5.32 38 6 C24.92171607 6.40448301 12.23781828 6.28085967 0 1 C0 0.67 0 0.34 0 0 Z " fill="#515151" transform="translate(104,261)"/>
<path d="M0 0 C2.60068318 1.83229952 4.75510154 3.75510154 7 6 C4.625 6.1875 4.625 6.1875 2 6 C1.34 5.01 0.68 4.02 0 3 C-1.901994 2.52441794 -1.901994 2.52441794 -4 2.625 C-5.051875 2.61339844 -5.051875 2.61339844 -6.125 2.6015625 C-8.41058594 2.859086 -8.41058594 2.859086 -10 6 C-10.31525218 9.46956742 -10.31525218 9.46956742 -9 13 C-7.030625 14.58057135 -5.06274932 15.71817713 -2.8125 16.859375 C-1 18 -1 18 0 21 C-5.4774105 19.93123698 -8.22616808 17.27623123 -11.6328125 13.08984375 C-13 11 -13 11 -13.75 7.8125 C-12.7489599 4.05859964 -10.94907777 2.45756481 -8 0 C-5.0233079 -1.48834605 -3.18307201 -0.8113713 0 0 Z " fill="#B4B4B4" transform="translate(361,301)"/>
<path d="M0 0 C-11.58529459 7.17184903 -24.20534189 12.59976774 -38 12 C-38 11.67 -38 11.34 -38 11 C-24.28571429 7 -24.28571429 7 -19 7 C-19 6.34 -19 5.68 -19 5 C-16.39985473 3.96772138 -13.79573631 2.94894848 -11.1875 1.9375 C-10.08051758 1.49567383 -10.08051758 1.49567383 -8.95117188 1.04492188 C-3.33984375 -1.11328125 -3.33984375 -1.11328125 0 0 Z " fill="#707070" transform="translate(292,323)"/>
<path d="M0 0 C0.66 0.33 1.32 0.66 2 1 C2.02684679 3.64590014 2.04676357 6.29153096 2.0625 8.9375 C2.07087891 9.69224609 2.07925781 10.44699219 2.08789062 11.22460938 C2.09652441 13.14994313 2.05224333 15.07535581 2 17 C1.67 17.33 1.34 17.66 1 18 C0.91940986 19.81178578 0.86099873 21.62457133 0.8125 23.4375 C0.34469251 30.17231477 -2.09666146 34.60455957 -6 40 C-7 38 -7 38 -6.0390625 34.734375 C-5.57504837 33.4036678 -5.103344 32.07562354 -4.625 30.75 C-1.90858472 23.15299243 -0.85125206 16.12872841 -0.4375 8.125 C-0.39431641 7.34125 -0.35113281 6.5575 -0.30664062 5.75 C-0.20146649 3.83349351 -0.10032075 1.91676667 0 0 Z " fill="#5A5A5A" transform="translate(484,236)"/>
<path d="M0 0 C0 0.66 0 1.32 0 2 C-0.99 2 -1.98 2 -3 2 C-3 2.66 -3 3.32 -3 4 C-8.70109168 6.96071186 -13.59982004 8.47684213 -20.03125 8.82421875 C-22.00182594 8.78801906 -22.00182594 8.78801906 -23 10 C-24.48638992 10.15655027 -25.97949127 10.25066943 -27.47265625 10.31640625 C-28.37177734 10.35830078 -29.27089844 10.40019531 -30.19726562 10.44335938 C-31.61555664 10.50233398 -31.61555664 10.50233398 -33.0625 10.5625 C-34.01189453 10.60568359 -34.96128906 10.64886719 -35.93945312 10.69335938 C-38.29281353 10.79979276 -40.64628354 10.90181008 -43 11 C-43 10.67 -43 10.34 -43 10 C-41.92685547 9.84180786 -41.92685547 9.84180786 -40.83203125 9.68041992 C-37.55326444 9.19183913 -34.27669494 8.68978044 -31 8.1875 C-29.87464844 8.02185547 -28.74929688 7.85621094 -27.58984375 7.68554688 C-21.34133176 6.71721022 -15.82139207 5.4704779 -10 3 C-2.22222222 0 -2.22222222 0 0 0 Z " fill="#9A9A9A" transform="translate(417,448)"/>
<path d="M0 0 C0.33 0 0.66 0 1 0 C1.22577402 5.4185766 0.46670113 9.77487721 -1 15 C-1.66 15 -2.32 15 -3 15 C-3.0825 15.804375 -3.165 16.60875 -3.25 17.4375 C-4.70735401 24.35993153 -7.90033122 30.28974705 -12 36 C-12.33 34.68 -12.66 33.36 -13 32 C-12.34 32 -11.68 32 -11 32 C-10.79503906 31.38511719 -10.59007812 30.77023437 -10.37890625 30.13671875 C-9.25260417 26.7578125 -8.12630208 23.37890625 -7 20 C-6.34 20 -5.68 20 -5 20 C-5 18.02 -5 16.04 -5 14 C-4.34 14 -3.68 14 -3 14 C-2.95101563 13.40832031 -2.90203125 12.81664062 -2.8515625 12.20703125 C-2.43543133 7.80895528 -1.95034405 4.03071103 0 0 Z " fill="#858585" transform="translate(498,259)"/>
<path d="M0 0 C0.33 0 0.66 0 1 0 C1.01981934 1.28165039 1.03963867 2.56330078 1.06005859 3.88378906 C1.13614503 8.64001067 1.22485798 13.39592757 1.31738281 18.15185547 C1.35565995 20.21006249 1.39051504 22.26833612 1.421875 24.32666016 C1.46755278 27.28572388 1.52554302 30.24432957 1.5859375 33.203125 C1.59748871 34.12305237 1.60903992 35.04297974 1.62094116 35.99078369 C1.64081085 36.8513739 1.66068054 37.71196411 1.68115234 38.59863281 C1.69447601 39.35364075 1.70779968 40.10864868 1.7215271 40.88653564 C2.2913041 45.2108465 4.2850395 47.49976356 7.625 50.125 C9.5390625 51.6328125 9.5390625 51.6328125 11 53 C11 53.66 11 54.32 11 55 C9.35 54.34 7.7 53.68 6 53 C6 52.34 6 51.68 6 51 C5.38125 50.731875 4.7625 50.46375 4.125 50.1875 C2 49 2 49 0 46 C-0.24050903 43.89289856 -0.24050903 43.89289856 -0.22705078 41.43676758 C-0.22689972 40.51603958 -0.22674866 39.59531158 -0.22659302 38.64668274 C-0.21627045 37.65597275 -0.20594788 36.66526276 -0.1953125 35.64453125 C-0.1924826 34.62775803 -0.18965271 33.6109848 -0.18673706 32.56340027 C-0.17553383 29.31298092 -0.15042886 26.06283619 -0.125 22.8125 C-0.11497039 20.61003002 -0.10584451 18.40755572 -0.09765625 16.20507812 C-0.07559405 10.80329157 -0.04211508 5.40166541 0 0 Z " fill="#383838" transform="translate(218,408)"/>
<path d="M0 0 C0.6640625 1.76953125 0.6640625 1.76953125 1 4 C-1.08529225 7.78645171 -3.76243431 10.59644597 -7.875 11.9375 C-8.57625 11.958125 -9.2775 11.97875 -10 12 C-10 12.66 -10 13.32 -10 14 C-11.40751221 14.86916887 -12.8264521 15.71985149 -14.25 16.5625 C-15.03890625 17.03816406 -15.8278125 17.51382812 -16.640625 18.00390625 C-19.30844625 19.13022151 -20.34501768 19.0169313 -23 18 C-21.23462904 16.82508418 -19.46250287 15.66031316 -17.6875 14.5 C-16.70136719 13.8503125 -15.71523438 13.200625 -14.69921875 12.53125 C-12 11 -12 11 -9 11 C-8.773125 10.443125 -8.54625 9.88625 -8.3125 9.3125 C-6.63575448 6.35823409 -4.45423315 4.33152149 -2 2 C-1.34 1.34 -0.68 0.68 0 0 Z " fill="#636363" transform="translate(465,293)"/>
<path d="M0 0 C0.99 0.33 1.98 0.66 3 1 C4.05310557 4.15931672 4.08751872 6.26155771 4.02172852 9.57299805 C4.00163223 10.71395432 3.98153595 11.85491058 3.96083069 13.03044128 C3.93379562 14.26176285 3.90676056 15.49308441 3.87890625 16.76171875 C3.85529526 18.02264847 3.83168427 19.28357819 3.80735779 20.5827179 C3.74370794 23.93158632 3.67550343 27.28029935 3.60510254 30.62902832 C3.53435247 34.04753386 3.46957548 37.466152 3.40429688 40.88476562 C3.27504366 47.58996135 3.1397856 54.29501603 3 61 C2.67 61 2.34 61 2 61 C1.98969254 60.41277161 1.97938507 59.82554321 1.96876526 59.22052002 C1.85976909 53.05496141 1.74525912 46.88952196 1.62768555 40.72412109 C1.58463211 38.42955034 1.54293918 36.13495361 1.50268555 33.84033203 C1.44425829 30.52368369 1.38078096 27.20716262 1.31640625 23.890625 C1.29969376 22.88074524 1.28298126 21.87086548 1.26576233 20.8303833 C1.12382255 13.85544593 0.65339329 6.94526286 0 0 Z " fill="#6A6A6A" transform="translate(136,146)"/>
<path d="M0 0 C5.55010083 -0.07453648 11.09990586 -0.12878399 16.65039062 -0.16479492 C18.53585897 -0.17981793 20.42129275 -0.20024231 22.30664062 -0.22631836 C25.0274309 -0.26298863 27.74775641 -0.27979146 30.46875 -0.29296875 C31.30241089 -0.30845261 32.13607178 -0.32393646 32.99499512 -0.33988953 C38.65535787 -0.34149232 42.80423066 0.73858834 48 3 C48 3.66 48 4.32 48 5 C40.125 4.125 40.125 4.125 39 3 C26.17649281 1.22101634 12.91928031 1.449882 0 1 C0 0.67 0 0.34 0 0 Z " fill="#898989" transform="translate(135,114)"/>
<path d="M0 0 C0.33 0 0.66 0 1 0 C1.00808685 0.70077667 1.01617371 1.40155334 1.02450562 2.12356567 C1.10261052 8.74411309 1.18994853 15.36446779 1.28752708 21.98475838 C1.33736502 25.38790984 1.38369544 28.79103213 1.421875 32.19433594 C1.46597575 36.11150262 1.5255753 40.02836132 1.5859375 43.9453125 C1.59748871 45.16115021 1.60903992 46.37698792 1.62094116 47.62966919 C1.64081085 48.77039886 1.66068054 49.91112854 1.68115234 51.08642578 C1.69447601 52.08570099 1.70779968 53.0849762 1.7215271 54.11453247 C2.02980776 57.30886063 2.88252593 60.00082694 4 63 C3.34 63 2.68 63 2 63 C-0.31118163 59.53322756 -0.24417896 58.23668119 -0.22705078 54.15161133 C-0.22689972 52.9505928 -0.22674866 51.74957428 -0.22659302 50.51216125 C-0.21627045 49.21521835 -0.20594788 47.91827545 -0.1953125 46.58203125 C-0.19158155 45.24110627 -0.18873497 43.90017856 -0.18673706 42.55924988 C-0.17910699 39.03285167 -0.15946403 35.50661866 -0.1373291 31.98028564 C-0.1168571 28.38076004 -0.10773245 24.78120769 -0.09765625 21.18164062 C-0.07621745 14.12102624 -0.04208913 7.06052391 0 0 Z " fill="#2D2D2D" transform="translate(86,190)"/>
<path d="M0 0 C9.22649458 -0.55358967 19.20944888 0.83334978 27 6 C27.928125 6.515625 28.85625 7.03125 29.8125 7.5625 C30.534375 8.036875 31.25625 8.51125 32 9 C32 9.66 32 10.32 32 11 C29.06743379 10.36975551 27.23507166 9.59021696 24.5 8.125 C18.09565749 4.83304824 10.93369343 3.28735436 3.8125 2.4375 C2.4203125 2.2209375 2.4203125 2.2209375 1 2 C0.67 1.34 0.34 0.68 0 0 Z " fill="#959595" transform="translate(333,123)"/>
<path d="M0 0 C-1 2 -1 2 -4.5625 3.3125 C-6.37311149 3.8810495 -8.18599079 4.44238627 -10 5 C-11.32718071 5.42205363 -12.6539771 5.84531691 -13.98046875 6.26953125 C-15.40350752 6.72178959 -16.8266855 7.17361015 -18.25 7.625 C-18.93521729 7.84325439 -19.62043457 8.06150879 -20.32641602 8.28637695 C-23.8612713 9.39481859 -27.3490684 10.36320961 -31 11 C-26.38544049 6.54456323 -20.95825579 4.96570022 -15 3 C-13.824375 2.608125 -12.64875 2.21625 -11.4375 1.8125 C-10.633125 1.544375 -9.82875 1.27625 -9 1 C-6.04335481 -0.4783226 -3.25770263 -0.06032783 0 0 Z " fill="#515151" transform="translate(312,108)"/>
<path d="M0 0 C0.56920166 0.03552979 1.13840332 0.07105957 1.72485352 0.10766602 C4.33701702 0.26656578 6.94969124 0.41460516 9.5625 0.5625 C10.90538086 0.64661133 10.90538086 0.64661133 12.27539062 0.73242188 C17.35696956 1.01162951 21.95755111 0.85721631 27 0 C29.6793948 -0.10751986 32.31632049 -0.0470821 35 0 C25.42641466 5.21398927 14.43587216 4.51794504 4 3 C4 2.34 4 1.68 4 1 C2.68 0.67 1.36 0.34 0 0 Z " fill="#6D6D6D" transform="translate(227,318)"/>
<path d="M0 0 C0.99 0.33 1.98 0.66 3 1 C3.6875 3.0625 3.6875 3.0625 4 5 C4.66 5 5.32 5 6 5 C6.28875 5.639375 6.5775 6.27875 6.875 6.9375 C7.82823451 9.15206079 7.82823451 9.15206079 10 10 C10 10.66 10 11.32 10 12 C10.86165771 11.99214478 10.86165771 11.99214478 11.74072266 11.98413086 C14.36880377 11.96321424 16.99686729 11.95029341 19.625 11.9375 C20.98044922 11.92493164 20.98044922 11.92493164 22.36328125 11.91210938 C27.02904289 11.89508105 31.41013285 12.03170577 36 13 C36 13.33 36 13.66 36 14 C32.06690266 13.90636389 28.13435915 13.80024855 24.2019043 13.68261719 C22.2070464 13.62555908 20.2119146 13.57835558 18.21679688 13.53125 C16.96318359 13.49257812 15.70957031 13.45390625 14.41796875 13.4140625 C13.26063232 13.3826416 12.1032959 13.3512207 10.91088867 13.31884766 C8 13 8 13 5 11 C3.61328125 8.90625 3.61328125 8.90625 2.3125 6.5 C1.87550781 5.7059375 1.43851562 4.911875 0.98828125 4.09375 C0 2 0 2 0 0 Z " fill="#AFAFAF" transform="translate(389,157)"/>
<path d="M0 0 C2.9375 0.375 2.9375 0.375 5.9375 2.375 C5.9375 3.035 5.9375 3.695 5.9375 4.375 C6.65292969 4.64183594 7.36835938 4.90867187 8.10546875 5.18359375 C10.99252167 6.39814705 13.56931764 7.82114782 16.25 9.4375 C17.13300781 9.96472656 18.01601562 10.49195313 18.92578125 11.03515625 C19.92158203 11.69837891 19.92158203 11.69837891 20.9375 12.375 C20.9375 12.705 20.9375 13.035 20.9375 13.375 C19.2875 13.375 17.6375 13.375 15.9375 13.375 C15.9375 12.715 15.9375 12.055 15.9375 11.375 C14.57625 10.941875 14.57625 10.941875 13.1875 10.5 C10.61547092 9.60968224 8.32403234 8.66005587 5.9375 7.375 C5.9375 6.715 5.9375 6.055 5.9375 5.375 C5.2775 5.375 4.6175 5.375 3.9375 5.375 C3.9375 4.715 3.9375 4.055 3.9375 3.375 C0.3075 3.705 -3.3225 4.035 -7.0625 4.375 C-4.75537028 1.53545573 -3.70274405 0.45339723 0 0 Z " fill="#7F7F7F" transform="translate(191.0625,299.625)"/>
<path d="M0 0 C9.00023637 0.43292276 17.97369076 1.00631347 26.9375 1.9375 C28.09934814 2.04940674 28.09934814 2.04940674 29.28466797 2.16357422 C34.76362079 2.76362079 34.76362079 2.76362079 37 5 C21.69080861 5.19109948 21.69080861 5.19109948 16 4 C15.67 3.67 15.34 3.34 15 3 C12.47804033 2.60056824 9.97036344 2.24920152 7.4375 1.9375 C6.72658203 1.84662109 6.01566406 1.75574219 5.28320312 1.66210938 C3.52261597 1.43760497 1.76136522 1.21831603 0 1 C0 0.67 0 0.34 0 0 Z " fill="#7F7F7F" transform="translate(260,472)"/>
<path d="M0 0 C0 0.66 0 1.32 0 2 C-6.50928367 4.9355593 -11.37688528 6.24568815 -18.625 5.6875 C-19.75164062 5.60886719 -20.87828125 5.53023438 -22.0390625 5.44921875 C-25 5 -25 5 -28 3 C-27.42556152 2.98018066 -26.85112305 2.96036133 -26.25927734 2.93994141 C-23.63076167 2.84407976 -21.00297509 2.73465126 -18.375 2.625 C-17.47136719 2.5940625 -16.56773437 2.563125 -15.63671875 2.53125 C-10.29250652 2.29719691 -5.09099311 0 0 0 Z " fill="#757575" transform="translate(164,481)"/>
<path d="M0 0 C1.89492187 0.15275391 1.89492187 0.15275391 3.828125 0.30859375 C4.79234375 0.39238281 5.7565625 0.47617188 6.75 0.5625 C6.75 0.8925 6.75 1.2225 6.75 1.5625 C5.93015625 1.61148438 5.1103125 1.66046875 4.265625 1.7109375 C3.18796875 1.78570312 2.1103125 1.86046875 1 1.9375 C-0.60101563 2.04191406 -0.60101563 2.04191406 -2.234375 2.1484375 C-5.14188761 2.54765555 -6.71075286 3.20058552 -9.25 4.5625 C-11.25657983 5.17390084 -13.2794129 5.73354045 -15.3125 6.25 C-16.87677734 6.65798828 -16.87677734 6.65798828 -18.47265625 7.07421875 C-21.25 7.5625 -21.25 7.5625 -24.25 6.5625 C-23.59 6.5625 -22.93 6.5625 -22.25 6.5625 C-22.25 5.9025 -22.25 5.2425 -22.25 4.5625 C-18.42679443 3.13991188 -15.33718695 2.32207724 -11.25 2.5625 C-11.25 1.9025 -11.25 1.2425 -11.25 0.5625 C-7.43483536 -0.73812431 -3.97438237 -0.33119853 0 0 Z " fill="#7C7C7C" transform="translate(128.25,114.4375)"/>
<path d="M0 0 C6.63172885 0.3261506 11.46355622 1.82791131 17.421875 4.74609375 C19.91026961 5.9563584 22.42009417 7.00237455 25 8 C25 8.66 25 9.32 25 10 C25.66 10 26.32 10 27 10 C27 10.66 27 11.32 27 12 C26.01 12 25.02 12 24 12 C23.67 11.34 23.34 10.68 23 10 C21.11736119 9.09656316 21.11736119 9.09656316 18.9375 8.375 C18.20402344 8.11460938 17.47054687 7.85421875 16.71484375 7.5859375 C16.14894531 7.39257812 15.58304688 7.19921875 15 7 C15 6.34 15 5.68 15 5 C13.02 5 11.04 5 9 5 C9 4.34 9 3.68 9 3 C7.700625 2.87625 6.40125 2.7525 5.0625 2.625 C2.84765625 2.4140625 2.84765625 2.4140625 1 2 C0.67 1.34 0.34 0.68 0 0 Z " fill="#707070" transform="translate(179,101)"/>
<path d="M0 0 C-0.33 0.66 -0.66 1.32 -1 2 C-6.78094229 3.233785 -12.54909949 3.11761102 -18.4375 3.0625 C-19.35982422 3.05798828 -20.28214844 3.05347656 -21.23242188 3.04882812 C-23.48835048 3.03713938 -25.74413967 3.02075455 -28 3 C-22.47234319 -2.52765681 -7.55236765 -0.12448958 0 0 Z " fill="#A0A0A0" transform="translate(373,459)"/>
<path d="M0 0 C-1.37561824 2.75123649 -2.7538719 2.76115225 -5.625 3.75 C-10.06932545 5.43490164 -13.13127472 7.43452952 -16.52734375 10.73046875 C-18 12 -18 12 -21 13 C-20.3125 10.625 -20.3125 10.625 -19 8 C-17.35636866 7.27840576 -15.68949614 6.60648579 -14 6 C-13.67 5.01 -13.34 4.02 -13 3 C-11.68 3 -10.36 3 -9 3 C-9 2.34 -9 1.68 -9 1 C-5.8035914 -0.06546953 -3.34252724 -0.07427838 0 0 Z " fill="#707070" transform="translate(107,105)"/>
<path d="M0 0 C0 0.66 0 1.32 0 2 C-0.93457031 1.86722656 -1.86914062 1.73445313 -2.83203125 1.59765625 C-13.54019588 0.13770288 -24.20545907 -0.55413853 -35 -1 C-35 -1.33 -35 -1.66 -35 -2 C-23.40552209 -4.12959798 -11.46351202 -2.19877419 0 0 Z " fill="#838383" transform="translate(350,109)"/>
<path d="M0 0 C0.33 0 0.66 0 1 0 C1.78358209 7.99253731 1.78358209 7.99253731 -1.1875 11.8125 C-2.115625 12.534375 -3.04375 13.25625 -4 14 C-4.7425 14.721875 -5.485 15.44375 -6.25 16.1875 C-9.96411154 18.63543715 -13.65703577 19.28090353 -18 20 C-17.34 19.67 -16.68 19.34 -16 19 C-16 18.34 -16 17.68 -16 17 C-15.25234375 16.72027344 -14.5046875 16.44054687 -13.734375 16.15234375 C-7.05611624 13.60651485 -7.05611624 13.60651485 -2.375 8.5 C-1.23907356 5.60855088 -0.37270433 3.07481071 0 0 Z " fill="#878787" transform="translate(210,241)"/>
<path d="M0 0 C-0.99 0.33 -1.98 0.66 -3 1 C-3 1.66 -3 2.32 -3 3 C-13.03867495 6.14938822 -21.43176379 7.58621957 -32 7 C-32 6.67 -32 6.34 -32 6 C-31.175 5.91363281 -30.35 5.82726562 -29.5 5.73828125 C-21.67372031 4.78620035 -14.5954168 3.15933652 -7.15625 0.58911133 C-2.19303865 -1.09651933 -2.19303865 -1.09651933 0 0 Z " fill="#B1B1B1" transform="translate(194,244)"/>
<path d="M0 0 C0.73605469 0.00451172 1.47210938 0.00902344 2.23046875 0.01367188 C4.02868158 0.02534858 5.82685197 0.04327989 7.625 0.0625 C7.625 0.3925 7.625 0.7225 7.625 1.0625 C6.79097656 1.11148438 5.95695312 1.16046875 5.09765625 1.2109375 C-0.84497987 1.60575181 -6.51483892 2.15113595 -12.296875 3.5859375 C-15.6286783 4.34999765 -18.9792257 4.69205189 -22.375 5.0625 C-22.375 4.4025 -22.375 3.7425 -22.375 3.0625 C-14.80311218 1.10425315 -7.82960246 -0.09202969 0 0 Z " fill="#8A8A8A" transform="translate(325.375,121.9375)"/>
<path d="M0 0 C0.66 0 1.32 0 2 0 C0.86922864 3.91420857 -0.08812937 6.20945732 -3 9 C-3.67349161 10.66392045 -4.3409159 12.33032028 -5 14 C-8.06533164 15.53266582 -11.26754272 15.10276471 -14.625 15.0625 C-15.33140625 15.05798828 -16.0378125 15.05347656 -16.765625 15.04882812 C-18.51045275 15.03703875 -20.255237 15.01910324 -22 15 C-22 14.67 -22 14.34 -22 14 C-21.00097656 13.95101562 -20.00195312 13.90203125 -18.97265625 13.8515625 C-17.68230469 13.77679688 -16.39195312 13.70203125 -15.0625 13.625 C-13.77472656 13.55539063 -12.48695313 13.48578125 -11.16015625 13.4140625 C-10.11730469 13.27742187 -9.07445312 13.14078125 -8 13 C-7.67 12.34 -7.34 11.68 -7 11 C-6.34 11 -5.68 11 -5 11 C-5.061875 10.236875 -5.12375 9.47375 -5.1875 8.6875 C-5 6 -5 6 -3.625 4.375 C-3.08875 3.92125 -2.5525 3.4675 -2 3 C-1.34 2.01 -0.68 1.02 0 0 Z " fill="#969696" transform="translate(263,155)"/>
<path d="M0 0 C-0.53367187 0.268125 -1.06734375 0.53625 -1.6171875 0.8125 C-8.02648926 4.18348224 -13.46819288 8.34589087 -19 13 C-19.66 12.67 -20.32 12.34 -21 12 C-20.34 11.01 -19.68 10.02 -19 9 C-18.01 9 -17.02 9 -16 9 C-15.67 8.01 -15.34 7.02 -15 6 C-12.4375 4.8125 -12.4375 4.8125 -10 4 C-10 3.34 -10 2.68 -10 2 C-4.10714286 -1.34821429 -4.10714286 -1.34821429 0 0 Z " fill="#B8B8B8" transform="translate(295,131)"/>
<path d="M0 0 C2.5607876 0.23279887 5.07967819 0.5256421 7.625 0.875 C8.67494141 1.01228516 8.67494141 1.01228516 9.74609375 1.15234375 C14.16881382 1.7349284 18.58488257 2.36264709 23 3 C21 5 21 5 17.875 5.125 C16.92625 5.08375 15.9775 5.0425 15 5 C15 4.34 15 3.68 15 3 C13.77023437 3.03480469 13.77023437 3.03480469 12.515625 3.0703125 C10.89914062 3.09738281 10.89914062 3.09738281 9.25 3.125 C7.64898437 3.15980469 7.64898437 3.15980469 6.015625 3.1953125 C3.07529894 3.00487687 1.47638122 2.52670104 -1 1 C-0.67 0.67 -0.34 0.34 0 0 Z " fill="#4A4A4A" transform="translate(253,455)"/>
<path d="M0 0 C0.95272312 2.56007809 1.11623296 3.68898395 0.14453125 6.2890625 C-0.51482422 7.44535156 -0.51482422 7.44535156 -1.1875 8.625 C-1.61417969 9.40101563 -2.04085937 10.17703125 -2.48046875 10.9765625 C-4.14183581 13.18887134 -5.45726609 13.9872623 -8 15 C-7.04965754 12.68391382 -6.09024942 10.3723643 -5.125 8.0625 C-4.85558594 7.40314453 -4.58617187 6.74378906 -4.30859375 6.06445312 C-2.2265625 1.11328125 -2.2265625 1.11328125 0 0 Z " fill="#7E7E7E" transform="translate(173,465)"/>
<path d="M0 0 C0.33 0 0.66 0 1 0 C1.6888091 9.13466832 2.30192693 17.88651147 1 27 C0.67 27 0.34 27 0 27 C-0.6888091 17.86533168 -1.30192693 9.11348853 0 0 Z " fill="#7E7E7E" transform="translate(499,231)"/>
<path d="M0 0 C0.33 0 0.66 0 1 0 C1.77783427 10.99339095 1.77783427 10.99339095 -1.125 14.75 C-4.40687215 16.17690093 -6.45873316 16.46190437 -10 16 C-10.99 15.34 -11.98 14.68 -13 14 C-12.67 13.34 -12.34 12.68 -12 12 C-10.906875 12.185625 -9.81375 12.37125 -8.6875 12.5625 C-5.06375867 13.2578068 -5.06375867 13.2578068 -2 12 C-0.78306124 9.56612247 -0.68040104 7.58161154 -0.4375 4.875 C-0.35371094 3.96492187 -0.26992187 3.05484375 -0.18359375 2.1171875 C-0.12300781 1.41851562 -0.06242188 0.71984375 0 0 Z " fill="#9B9B9B" transform="translate(138,207)"/>
<path d="M0 0 C1.24136719 0.46019531 1.24136719 0.46019531 2.5078125 0.9296875 C6.27632587 2.08469048 9.97674804 2.66416014 13.875 3.125 C14.90753906 3.25455078 14.90753906 3.25455078 15.9609375 3.38671875 C17.63995275 3.59659566 19.31989048 3.79907087 21 4 C21 4.33 21 4.66 21 5 C17.7 5.33 14.4 5.66 11 6 C11 5.34 11 4.68 11 4 C10.071875 4.185625 9.14375 4.37125 8.1875 4.5625 C5 5 5 5 2 4 C2 3.34 2 2.68 2 2 C1.34 2 0.68 2 0 2 C0 1.34 0 0.68 0 0 Z " fill="#7F7F7F" transform="translate(384,315)"/>
<path d="M0 0 C5.69139902 1.09698167 10.74567937 2.54053077 16 5 C16 5.66 16 6.32 16 7 C5.01028278 4.70437018 5.01028278 4.70437018 1 3 C0.67 2.01 0.34 1.02 0 0 Z " fill="#919191" transform="translate(353,111)"/>
<path d="M0 0 C5.36170846 0.39562121 10.0434033 0.79706813 15 3 C16.9924325 3.37593066 18.9918674 3.71979545 21 4 C21 4.33 21 4.66 21 5 C14.15441792 5.47759875 7.52260402 4.06076475 1 2 C0.67 1.34 0.34 0.68 0 0 Z " fill="#959595" transform="translate(239,467)"/>
<path d="M0 0 C0.33 0.99 0.66 1.98 1 3 C-0.38980752 4.13243576 -1.78714677 5.25563119 -3.1875 6.375 C-3.96480469 7.00148438 -4.74210937 7.62796875 -5.54296875 8.2734375 C-8.00792513 10.00556901 -10.11532878 11.14073623 -13 12 C-13.99 11.67 -14.98 11.34 -16 11 C-15.34 11 -14.68 11 -14 11 C-14 10.34 -14 9.68 -14 9 C-12.37750059 8.16180842 -10.75191503 7.3295884 -9.125 6.5 C-7.76761719 5.80390625 -7.76761719 5.80390625 -6.3828125 5.09375 C-4 4 -4 4 -2 4 C-1.34 2.68 -0.68 1.36 0 0 Z " fill="#8F8F8F" transform="translate(432,454)"/>
<path d="M0 0 C5.48276333 4.74644181 6.63080513 11.29472917 7.18359375 18.33984375 C7.18677286 19.89443094 7.10574929 21.44901047 7 23 C6.67 23 6.34 23 6 23 C5.73445313 21.89140625 5.46890625 20.7828125 5.1953125 19.640625 C4.83879379 18.17702189 4.48200897 16.71348359 4.125 15.25 C3.95097656 14.52039063 3.77695312 13.79078125 3.59765625 13.0390625 C2.71016046 9.4233389 1.72029692 6.31660848 0 3 C0 2.01 0 1.02 0 0 Z " fill="#9C9C9C" transform="translate(477,213)"/>
<path d="M0 0 C-13.16207277 6.16097023 -13.16207277 6.16097023 -20 4 C-6.83792723 -2.16097023 -6.83792723 -2.16097023 0 0 Z " fill="#939393" transform="translate(416,467)"/>
<path d="M0 0 C0 0.66 0 1.32 0 2 C-0.99 2 -1.98 2 -3 2 C-3 2.66 -3 3.32 -3 4 C-4.4317616 4.69937202 -5.87067032 5.38412718 -7.3125 6.0625 C-8.51326172 6.63677734 -8.51326172 6.63677734 -9.73828125 7.22265625 C-12 8 -12 8 -15 7 C-12.64739097 3.47108645 -11.41796084 3.15801024 -7.5 1.8125 C-6.5203125 1.46832031 -5.540625 1.12414062 -4.53125 0.76953125 C-2 0 -2 0 0 0 Z " fill="#727272" transform="translate(417,448)"/>
<path d="M0 0 C5.44533513 0.38895251 8.12686961 2.2148953 12 6 C13.375 8.3125 13.375 8.3125 14 10 C12.68 9.67 11.36 9.34 10 9 C10 8.34 10 7.68 10 7 C7.525 6.01 7.525 6.01 5 5 C5 4.34 5 3.68 5 3 C2.525 2.01 2.525 2.01 0 1 C0 0.67 0 0.34 0 0 Z " fill="#878787" transform="translate(365,134)"/>
<path d="M0 0 C7.19270839 0.46247533 14.0030827 1.25077067 21 3 C21 3.33 21 3.66 21 4 C15.22240116 4.12036664 9.72040011 3.8320582 4 3 C4 2.34 4 1.68 4 1 C2.68 0.67 1.36 0.34 0 0 Z " fill="#5E5E5E" transform="translate(227,318)"/>
<path d="M0 0 C0.99 0 1.98 0 3 0 C3.86366822 1.78710586 4.71568594 3.5798465 5.5625 5.375 C6.27599609 6.87160156 6.27599609 6.87160156 7.00390625 8.3984375 C7.33261719 9.25695312 7.66132813 10.11546875 8 11 C7.67 11.66 7.34 12.32 7 13 C5.82479354 11.40207898 4.66008753 9.79643092 3.5 8.1875 C2.8503125 7.29417969 2.200625 6.40085938 1.53125 5.48046875 C0 3 0 3 0 0 Z " fill="#8A8A8A" transform="translate(469,199)"/>
<path d="M0 0 C6.98942918 -0.602537 6.98942918 -0.602537 9.8671875 1.11328125 C11.30861002 2.33745588 12.66278229 3.66278229 14 5 C13.67 5.66 13.34 6.32 13 7 C12.01 6.67 11.02 6.34 10 6 C10 5.34 10 4.68 10 4 C9.46375 3.87625 8.9275 3.7525 8.375 3.625 C5.5361714 2.87793984 2.77776798 1.94696636 0 1 C0 0.67 0 0.34 0 0 Z " fill="#737373" transform="translate(184,119)"/>
<path d="M0 0 C6.41923331 0.29112169 10.62100206 1.45215029 16 5 C12.58981018 6.13672994 11.83271596 5.85110129 8.5625 4.6875 C7.80066406 4.42324219 7.03882813 4.15898437 6.25390625 3.88671875 C4.09522161 3.03746154 2.05566265 2.07231605 0 1 C0 0.67 0 0.34 0 0 Z " fill="#AAAAAA" transform="translate(425,171)"/>
<path d="M0 0 C0.99 0.33 1.98 0.66 3 1 C3.6875 3.0625 3.6875 3.0625 4 5 C4.66 5 5.32 5 6 5 C6.28875 5.61875 6.5775 6.2375 6.875 6.875 C7.93720042 9.13325765 7.93720042 9.13325765 10 11 C8.35 11 6.7 11 5 11 C4.16151196 9.54462432 3.32936066 8.08559627 2.5 6.625 C1.80390625 5.40683594 1.80390625 5.40683594 1.09375 4.1640625 C0 2 0 2 0 0 Z " fill="#6F6F6F" transform="translate(389,157)"/>
<path d="M0 0 C2.29225435 0.11371497 4.58382388 0.24130964 6.875 0.375 C8.15117187 0.44460938 9.42734375 0.51421875 10.7421875 0.5859375 C14 1 14 1 16 3 C13.70839681 3.02692484 11.41670454 3.04636124 9.125 3.0625 C7.84882813 3.07410156 6.57265625 3.08570313 5.2578125 3.09765625 C2 3 2 3 0 2 C0 1.34 0 0.68 0 0 Z " fill="#717171" transform="translate(281,474)"/>
<path d="M0 0 C0.99 0.33 1.98 0.66 3 1 C3.73046875 3.06640625 3.73046875 3.06640625 4.1875 5.5625 C4.34605469 6.38878906 4.50460938 7.21507812 4.66796875 8.06640625 C4.77753906 8.70449219 4.88710937 9.34257812 5 10 C4.01 10 3.02 10 2 10 C-0.09350689 6.5980513 -0.17942163 3.94727588 0 0 Z " fill="#656565" transform="translate(123,463)"/>
<path d="M0 0 C2 2 2 2 3.25 4.4375 C5.4049486 7.59296044 7.60375999 8.3757113 11 10 C11.33 10.99 11.66 11.98 12 13 C6.68676863 11.73494491 3.13183428 9.44763966 0 5 C-0.375 2.125 -0.375 2.125 0 0 Z " fill="#909090" transform="translate(349,309)"/>
<path d="M0 0 C0.33 0 0.66 0 1 0 C0.72740991 6.77386385 -0.19053359 11.34724339 -4 17 C-5 15 -5 15 -4.00390625 11.5234375 C-3.53099953 10.13802064 -3.05018356 8.75528453 -2.5625 7.375 C-2.31951172 6.66859375 -2.07652344 5.9621875 -1.82617188 5.234375 C-1.22412795 3.48726713 -0.61291983 1.74332214 0 0 Z " fill="#A4A4A4" transform="translate(482,259)"/>
<path d="M0 0 C0.66 0.33 1.32 0.66 2 1 C0.6875 3.9375 0.6875 3.9375 -1 7 C-4.92296433 8.30765478 -7.86002433 8.1971417 -12 8 C-12.66 7.34 -13.32 6.68 -14 6 C-10.37 6 -6.74 6 -3 6 C-2.34 4.35 -1.68 2.7 -1 1 C-0.67 0.67 -0.34 0.34 0 0 Z " fill="#7F7F7F" transform="translate(157,463)"/>
<path d="M0 0 C0.33 0 0.66 0 1 0 C1.02893932 3.62498334 1.04677792 7.24993713 1.0625 10.875 C1.07087891 11.90753906 1.07925781 12.94007813 1.08789062 14.00390625 C1.09111328 14.99003906 1.09433594 15.97617187 1.09765625 16.9921875 C1.10289307 17.90339355 1.10812988 18.81459961 1.11352539 19.75341797 C1 22 1 22 0 24 C-0.66 24 -1.32 24 -2 24 C-1.84660156 23.37738281 -1.69320313 22.75476563 -1.53515625 22.11328125 C-0.79669205 17.81725228 -0.63537838 13.53758048 -0.4375 9.1875 C-0.37272461 7.86202148 -0.37272461 7.86202148 -0.30664062 6.50976562 C-0.20108464 4.34000377 -0.10008929 2.1700209 0 0 Z " fill="#8F8F8F" transform="translate(435,430)"/>
<path d="M0 0 C0 0.99 0 1.98 0 3 C-1.40751221 3.86916887 -2.8264521 4.71985149 -4.25 5.5625 C-5.03890625 6.03816406 -5.8278125 6.51382812 -6.640625 7.00390625 C-9.30844625 8.13022151 -10.34501768 8.0169313 -13 7 C-11.21190303 5.82786955 -9.41940875 4.66244474 -7.625 3.5 C-6.62726563 2.8503125 -5.62953125 2.200625 -4.6015625 1.53125 C-2 0 -2 0 0 0 Z " fill="#949494" transform="translate(455,304)"/>
<path d="M0 0 C0.99 0.33 1.98 0.66 3 1 C3.6875 3.0625 3.6875 3.0625 4 5 C4.66 5 5.32 5 6 5 C7.0625 6.8125 7.0625 6.8125 8 9 C7.67 9.99 7.34 10.98 7 12 C6.401875 11.030625 5.80375 10.06125 5.1875 9.0625 C3.28872491 5.76947958 3.28872491 5.76947958 0 5 C0 3.35 0 1.7 0 0 Z " fill="#8F8F8F" transform="translate(397,141)"/>
<path d="M0 0 C4.98012761 1.50912958 8.24259942 4.55661849 12 8 C9 9 9 9 7.125 8.375 C4.33803457 6.57166943 2.21623013 4.46247792 0 2 C0 1.34 0 0.68 0 0 Z " fill="#7F7F7F" transform="translate(375,121)"/>
<path d="M0 0 C-5.8413063 3.14531878 -11.47379433 4.32487528 -18 5 C-13.34867054 0.55090225 -6.23621723 -0.4023366 0 0 Z " fill="#9E9E9E" transform="translate(123,100)"/>
<path d="M0 0 C0.33 0 0.66 0 1 0 C1 4.29 1 8.58 1 13 C-3.455 14.485 -3.455 14.485 -8 16 C-6.8125 14 -6.8125 14 -5 12 C-3.35 12 -1.7 12 0 12 C0 8.04 0 4.08 0 0 Z " fill="#444444" transform="translate(141,385)"/>
<path d="M0 0 C0.33 0.66 0.66 1.32 1 2 C-2.47436145 4.79643726 -4.21486376 6.0130856 -8.75 5.9375 C-12 5 -12 5 -14 2 C-13.40832031 2.10699219 -12.81664062 2.21398437 -12.20703125 2.32421875 C-6.94236509 3.15099991 -6.94236509 3.15099991 -1.9375 1.5625 C-1.298125 1.046875 -0.65875 0.53125 0 0 Z " fill="#A3A3A3" transform="translate(173,217)"/>
<path d="M0 0 C2.93879484 1.35236577 5.29232911 2.89942659 7.75 5 C8.67039063 5.7734375 8.67039063 5.7734375 9.609375 6.5625 C11 8 11 8 11 10 C8.525 9.01 8.525 9.01 6 8 C6 7.34 6 6.68 6 6 C5.38125 5.7525 4.7625 5.505 4.125 5.25 C1.64931313 3.79371361 1.04874998 2.62187494 0 0 Z " fill="#8A8A8A" transform="translate(218,453)"/>
<path d="M0 0 C0.66 0 1.32 0 2 0 C1.67 1.32 1.34 2.64 1 4 C0.34 4 -0.32 4 -1 4 C-1.32613618 8.67461851 -0.70582788 11.16674383 2 15 C-1.875 13.25 -1.875 13.25 -3 11 C-2.94921875 8.90625 -2.94921875 8.90625 -2.6875 6.5 C-2.60886719 5.7059375 -2.53023437 4.911875 -2.44921875 4.09375 C-2 2 -2 2 0 0 Z " fill="#A8A8A8" transform="translate(238,154)"/>
<path d="M0 0 C-1.32 0.33 -2.64 0.66 -4 1 C-4 1.66 -4 2.32 -4 3 C-7.3 3.66 -10.6 4.32 -14 5 C-11.69658115 1.54487173 -10.85120076 1.3471444 -7 0.25 C-6.113125 -0.01296875 -5.22625 -0.2759375 -4.3125 -0.546875 C-2 -1 -2 -1 0 0 Z " fill="#9B9B9B" transform="translate(442,313)"/>
<path d="M0 0 C1.375 2.0625 1.375 2.0625 2 4 C1.34 3.67 0.68 3.34 0 3 C-1.70702735 2.93003986 -3.41668003 2.91559846 -5.125 2.9375 C-6.03507812 2.94652344 -6.94515625 2.95554687 -7.8828125 2.96484375 C-8.93082031 2.98224609 -8.93082031 2.98224609 -10 3 C-10 2.34 -10 1.68 -10 1 C-6.44714239 -1.32302228 -4.02436469 -1.22480664 0 0 Z " fill="#AAAAAA" transform="translate(300,301)"/>
<path d="M0 0 C2.9375 0.375 2.9375 0.375 5.9375 2.375 C5.6075 3.035 5.2775 3.695 4.9375 4.375 C3.885625 4.189375 2.83375 4.00375 1.75 3.8125 C-1.63369882 3.42420669 -3.82675888 3.49252515 -7.0625 4.375 C-4.75537028 1.53545573 -3.70274405 0.45339723 0 0 Z " fill="#A6A6A6" transform="translate(191.0625,299.625)"/>
<path d="M0 0 C-0.99 0.33 -1.98 0.66 -3 1 C-3 1.66 -3 2.32 -3 3 C-6.3 3.66 -9.6 4.32 -13 5 C-13 4.34 -13 3.68 -13 3 C-11.21189234 2.30329584 -9.41937948 1.61788811 -7.625 0.9375 C-6.62726563 0.55464844 -5.62953125 0.17179688 -4.6015625 -0.22265625 C-2 -1 -2 -1 0 0 Z " fill="#858585" transform="translate(194,244)"/>
<path d="M0 0 C1.6065676 0.25620684 3.2102483 0.53055871 4.8125 0.8125 C6.15248047 1.03873047 6.15248047 1.03873047 7.51953125 1.26953125 C10.18321256 2.05395393 11.25690322 2.88627799 13 5 C11.20767663 4.69128878 9.41615679 4.37790936 7.625 4.0625 C6.62726563 3.88847656 5.62953125 3.71445312 4.6015625 3.53515625 C2 3 2 3 0 2 C0 1.34 0 0.68 0 0 Z " fill="#929292" transform="translate(212,313)"/>
<path d="M0 0 C0.33 0 0.66 0 1 0 C1.17835515 4.54805635 0.99785435 7.8794254 -1 12 C-1.66 12 -2.32 12 -3 12 C-2.69230293 10.18667846 -2.37870936 8.37435655 -2.0625 6.5625 C-1.80146484 5.04849609 -1.80146484 5.04849609 -1.53515625 3.50390625 C-1 1 -1 1 0 0 Z " fill="#676767" transform="translate(498,259)"/>
<path d="M0 0 C3.63 0.33 7.26 0.66 11 1 C11.33 1.99 11.66 2.98 12 4 C7.6822542 3.49202991 3.96697886 2.80317221 0 1 C0 0.67 0 0.34 0 0 Z " fill="#8F8F8F" transform="translate(104,261)"/>
<path d="M0 0 C4.86896303 0.59619955 9.32790951 1.56976822 14 3 C14 3.33 14 3.66 14 4 C11.69 4.33 9.38 4.66 7 5 C7 4.34 7 3.68 7 3 C4.69 2.67 2.38 2.34 0 2 C0 1.34 0 0.68 0 0 Z " fill="#989898" transform="translate(110,246)"/>
<path d="M0 0 C3.21043882 1.38188453 5.04936365 2.92421903 7.25 5.625 C8.03117187 6.57246094 8.03117187 6.57246094 8.828125 7.5390625 C9.40820312 8.26222656 9.40820312 8.26222656 10 9 C9.67 9.66 9.34 10.32 9 11 C7.6781638 9.92807816 6.36782073 8.84197305 5.0625 7.75 C4.33160156 7.14671875 3.60070312 6.5434375 2.84765625 5.921875 C0.89673666 3.89258866 0.38268221 2.745593 0 0 Z " fill="#919191" transform="translate(387,130)"/>
<path d="M0 0 C0 0.66 0 1.32 0 2 C-0.99 2 -1.98 2 -3 2 C-3.33 2.99 -3.66 3.98 -4 5 C-6.21593183 6.71054387 -8.46190652 7.75321724 -11 9 C-11.66 8.67 -12.32 8.34 -13 8 C-11.2126038 6.66094733 -9.41995047 5.32890934 -7.625 4 C-6.62726563 3.2575 -5.62953125 2.515 -4.6015625 1.75 C-2 0 -2 0 0 0 Z " fill="#949494" transform="translate(281,119)"/>
<path d="M0 0 C0.66 0.33 1.32 0.66 2 1 C0.90081184 1.98475214 -0.2045602 2.96260473 -1.3125 3.9375 C-1.92738281 4.48277344 -2.54226562 5.02804688 -3.17578125 5.58984375 C-5 7 -5 7 -8 8 C-7.00310315 4.31148165 -6.31080309 3.19425193 -3 1.125 C-2.01 0.75375 -1.02 0.3825 0 0 Z " fill="#6A6A6A" transform="translate(94,110)"/>
<path d="M0 0 C0.33 0 0.66 0 1 0 C1 5.28 1 10.56 1 16 C2.32 16.66 3.64 17.32 5 18 C4.01 18.33 3.02 18.66 2 19 C0 17 0 17 -0.1953125 13.0859375 C-0.18200376 11.51550649 -0.15813602 9.94513779 -0.125 8.375 C-0.11597656 7.57320313 -0.10695312 6.77140625 -0.09765625 5.9453125 C-0.07406223 3.96341477 -0.03819065 1.98167019 0 0 Z " fill="#888888" transform="translate(232,430)"/>
<path d="M0 0 C1.43931117 0.45261358 2.87638999 0.91232979 4.3125 1.375 C5.11300781 1.63023437 5.91351563 1.88546875 6.73828125 2.1484375 C9 3 9 3 12 5 C12 5.66 12 6.32 12 7 C8.80862651 6.36747553 6.48762632 5.24396936 3.75 3.5 C3.04359375 3.0565625 2.3371875 2.613125 1.609375 2.15625 C1.07828125 1.7746875 0.5471875 1.393125 0 1 C0 0.67 0 0.34 0 0 Z " fill="#838383" transform="translate(194,321)"/>
<path d="M0 0 C4.12751449 0.60698743 7.3321148 2.03810791 11 4 C11 4.66 11 5.32 11 6 C7.85262818 5.30058404 4.97411124 4.23921302 2 3 C2 2.34 2 1.68 2 1 C1.34 0.67 0.68 0.34 0 0 Z " fill="#878787" transform="translate(361,322)"/>
<path d="M0 0 C-1.36370299 2.99220268 -2.94908083 5.29026529 -5.125 7.75 C-5.93324219 8.67039063 -5.93324219 8.67039063 -6.7578125 9.609375 C-7.16773438 10.06828125 -7.57765625 10.5271875 -8 11 C-8.33 10.01 -8.66 9.02 -9 8 C-7.63671875 5.95703125 -7.63671875 5.95703125 -5.6875 3.8125 C-5.05199219 3.09707031 -4.41648437 2.38164062 -3.76171875 1.64453125 C-2 0 -2 0 0 0 Z " fill="#989898" transform="translate(274,144)"/>
<path d="M0 0 C0.66 0.33 1.32 0.66 2 1 C-0.35468455 3.72647685 -2.5408417 4.98756342 -6 6 C-8.16015625 5.546875 -8.16015625 5.546875 -10 5 C-8.38007835 4.13624104 -6.75388139 3.28424146 -5.125 2.4375 C-4.22007812 1.96183594 -3.31515625 1.48617187 -2.3828125 0.99609375 C-1.20332031 0.50302734 -1.20332031 0.50302734 0 0 Z " fill="#969696" transform="translate(291,113)"/>
<path d="M0 0 C4.51013391 0.53060399 7.38378219 2.30886117 11 5 C11 5.33 11 5.66 11 6 C8.625 6.1875 8.625 6.1875 6 6 C5.34 5.01 4.68 4.02 4 3 C1.43717258 2.27034634 1.43717258 2.27034634 -1 2 C-0.67 1.34 -0.34 0.68 0 0 Z " fill="#828282" transform="translate(357,301)"/>
<path d="M0 0 C0 0.66 0 1.32 0 2 C-8.03571429 4.27678571 -8.03571429 4.27678571 -12 3 C-11.01 3 -10.02 3 -9 3 C-9 2.34 -9 1.68 -9 1 C-5.92677456 0.08941469 -3.19902639 -0.08886184 0 0 Z " fill="#989898" transform="translate(192,261)"/>
<path d="M0 0 C0.625 1.875 0.625 1.875 1 4 C0.34 4.66 -0.32 5.32 -1 6 C-1.71408334 7.98356483 -2.38617742 9.98315437 -3 12 C-3.33 12 -3.66 12 -4 12 C-3.5317879 7.22423661 -2.75668002 3.95523655 0 0 Z " fill="#8A8A8A" transform="translate(127,406)"/>
<path d="M0 0 C-7.42857143 4.42857143 -7.42857143 4.42857143 -11 5 C-10 2 -10 2 -6.625 0.25 C-3 -1 -3 -1 0 0 Z " fill="#9A9A9A" transform="translate(292,323)"/>
<path d="M0 0 C2.95653744 1.3726781 5.5649856 2.81688364 8 5 C8.75 7.1875 8.75 7.1875 9 9 C8.01 8.67 7.02 8.34 6 8 C6 7.34 6 6.68 6 6 C5.34 6 4.68 6 4 6 C2.61061923 4.03852126 1.2739589 2.03833424 0 0 Z " fill="#ABABAB" transform="translate(460,190)"/>
<path d="M0 0 C0.33 1.32 0.66 2.64 1 4 C0.01 4.33 -0.98 4.66 -2 5 C-2.73323796 7.01508358 -2.73323796 7.01508358 -3 9 C-4.98 9 -6.96 9 -9 9 C-8.443125 8.814375 -7.88625 8.62875 -7.3125 8.4375 C-3.93245808 6.33639286 -2.14859619 3.29334006 0 0 Z " fill="#B7B7B7" transform="translate(251,145)"/>
<path d="M0 0 C0.33 0.66 0.66 1.32 1 2 C0.22265625 3.9453125 0.22265625 3.9453125 -0.9375 6.125 C-1.31777344 6.84945313 -1.69804687 7.57390625 -2.08984375 8.3203125 C-2.39019531 8.87460937 -2.69054687 9.42890625 -3 10 C-3.66 10 -4.32 10 -5 10 C-3.66511872 6.40608886 -2.03977277 3.24509304 0 0 Z " fill="#A6A6A6" transform="translate(476,277)"/>
<path d="M0 0 C0 4.32991847 -2.11505369 5.91377837 -5 9 C-5.99 9.33 -6.98 9.66 -8 10 C-6.34908222 5.70761377 -3.26245434 3.1206085 0 0 Z " fill="#B0B0B0" transform="translate(265,129)"/>
<path d="M0 0 C-1.28913487 0.67154933 -2.58140204 1.33708859 -3.875 2 C-4.59429687 2.37125 -5.31359375 2.7425 -6.0546875 3.125 C-8 4 -8 4 -10 4 C-10 3.34 -10 2.68 -10 2 C-4.10714286 -1.34821429 -4.10714286 -1.34821429 0 0 Z " fill="#8E8E8E" transform="translate(295,131)"/>
<path d="M0 0 C0.33 0 0.66 0 1 0 C1 2.97 1 5.94 1 9 C-0.98 9.99 -0.98 9.99 -3 11 C-2.01 7.37 -1.02 3.74 0 0 Z " fill="#585858" transform="translate(210,241)"/>
<path d="M0 0 C4.67692308 1.47692308 4.67692308 1.47692308 6.3125 4.125 C6.539375 4.74375 6.76625 5.3625 7 6 C5.1875 5.8125 5.1875 5.8125 3 5 C1.25 2.4375 1.25 2.4375 0 0 Z " fill="#868686" transform="translate(466,174)"/>
<path d="M0 0 C3.73487777 0.4979837 5.81237635 0.87491756 9 3 C9 3.66 9 4.32 9 5 C5.12867972 4.42647107 2.91827204 2.51295648 0 0 Z " fill="#9D9D9D" transform="translate(356,129)"/>
<path d="M0 0 C1.4800841 0.11362262 2.95910074 0.24122908 4.4375 0.375 C5.26121094 0.44460937 6.08492187 0.51421875 6.93359375 0.5859375 C7.95646484 0.79089844 7.95646484 0.79089844 9 1 C9.33 1.66 9.66 2.32 10 3 C8.5199159 2.88637738 7.04089926 2.75877092 5.5625 2.625 C4.73878906 2.55539063 3.91507813 2.48578125 3.06640625 2.4140625 C2.38449219 2.27742188 1.70257813 2.14078125 1 2 C0.67 1.34 0.34 0.68 0 0 Z " fill="#9D9D9D" transform="translate(179,101)"/>
<path d="M0 0 C-0.33 0.66 -0.66 1.32 -1 2 C-3.06640625 2.4140625 -3.06640625 2.4140625 -5.5625 2.625 C-6.38878906 2.69976562 -7.21507812 2.77453125 -8.06640625 2.8515625 C-9.02353516 2.92503906 -9.02353516 2.92503906 -10 3 C-6.93361469 -0.59474709 -4.63005752 -0.26207873 0 0 Z " fill="#9F9F9F" transform="translate(312,108)"/>
<path d="M0 0 C0 0.66 0 1.32 0 2 C-1.96147874 3.38938077 -3.96166576 4.7260411 -6 6 C-6.66 5.67 -7.32 5.34 -8 5 C-3.375 0 -3.375 0 0 0 Z " fill="#919191" transform="translate(300,316)"/>
<path d="M0 0 C0.66 0.33 1.32 0.66 2 1 C-0.97 3.475 -0.97 3.475 -4 6 C-4.66 5.67 -5.32 5.34 -6 5 C-2.25 1.125 -2.25 1.125 0 0 Z " fill="#989898" transform="translate(465,315)"/>
<path d="M0 0 C3.465 1.485 3.465 1.485 7 3 C6.67 3.99 6.34 4.98 6 6 C4.68 5.34 3.36 4.68 2 4 C2 3.34 2 2.68 2 2 C1.34 2 0.68 2 0 2 C0 1.34 0 0.68 0 0 Z " fill="#636363" transform="translate(195,303)"/>
<path d="M0 0 C2.97 0.33 5.94 0.66 9 1 C9 1.66 9 2.32 9 3 C2.84765625 2.4140625 2.84765625 2.4140625 1 2 C0.67 1.34 0.34 0.68 0 0 Z " fill="#939393" transform="translate(174,116)"/>
<path d="M0 0 C3 1 3 1 4.6875 4.0625 C5.120625 5.031875 5.55375 6.00125 6 7 C3.53199953 5.84826645 1.95216435 4.95216435 0 3 C0 2.01 0 1.02 0 0 Z " fill="#8C8C8C" transform="translate(127,474)"/>
<path d="M0 0 C3.4375 0.8125 3.4375 0.8125 7 2 C7.33 2.99 7.66 3.98 8 5 C2.25 3.375 2.25 3.375 0 0 Z " fill="#B0B0B0" transform="translate(442,177)"/>
<path d="M0 0 C3.34192692 0.24453124 4.60543557 0.60543557 7 3 C3.7 3 0.4 3 -3 3 C-2.01 2.01 -1.02 1.02 0 0 Z " fill="#B5B5B5" transform="translate(129,143)"/>
<path d="M0 0 C3.37462715 0.54723683 5.08235 1.0549 8 3 C7.67 3.66 7.34 4.32 7 5 C4.0625 4.1875 4.0625 4.1875 1 3 C0.67 2.01 0.34 1.02 0 0 Z " fill="#606060" transform="translate(353,111)"/>
</svg>
